solid OpenSCAD_Model
  facet normal -0.000000 0.000000 -1.000000
    outer loop
      vertex 0.000000 7.450000 0.000000
      vertex 0.364629 9.752177 0.000000
      vertex 0.364629 5.147823 0.000000
    endloop
  endfacet
  facet normal 0.000000 -0.000000 -1.000000
    outer loop
      vertex 0.364629 5.147823 0.000000
      vertex 0.364629 9.752177 0.000000
      vertex 1.422823 11.829000 0.000000
    endloop
  endfacet
  facet normal 0.000000 0.000000 -1.000000
    outer loop
      vertex 0.364629 5.147823 0.000000
      vertex 1.422823 11.829000 0.000000
      vertex 3.071000 13.477177 0.000000
    endloop
  endfacet
  facet normal 0.000000 0.000000 -1.000000
    outer loop
      vertex 0.364629 5.147823 0.000000
      vertex 3.071000 13.477177 0.000000
      vertex 5.147823 14.535371 0.000000
    endloop
  endfacet
  facet normal 0.000000 0.000000 -1.000000
    outer loop
      vertex 0.364629 5.147823 0.000000
      vertex 5.147823 14.535371 0.000000
      vertex 7.450000 14.900000 0.000000
    endloop
  endfacet
  facet normal 0.000000 -0.000000 -1.000000
    outer loop
      vertex 10.629084 10.117569 0.000000
      vertex 7.450000 14.900000 0.000000
      vertex 24.950000 14.900000 0.000000
    endloop
  endfacet
  facet normal 0.000000 -0.000000 -1.000000
    outer loop
      vertex 3.550276 8.869384 0.000000
      vertex 0.364629 5.147823 0.000000
      vertex 4.270916 10.117569 0.000000
    endloop
  endfacet
  facet normal -0.000000 -0.000000 -1.000000
    outer loop
      vertex 9.525000 11.044005 0.000000
      vertex 7.450000 14.900000 0.000000
      vertex 10.629084 10.117569 0.000000
    endloop
  endfacet
  facet normal 0.000000 -0.000000 -1.000000
    outer loop
      vertex 10.855734 9.725000 0.000000
      vertex 10.629084 10.117569 0.000000
      vertex 24.950000 14.900000 0.000000
    endloop
  endfacet
  facet normal -0.000000 -0.000000 -1.000000
    outer loop
      vertex 8.170640 11.536952 0.000000
      vertex 7.450000 14.900000 0.000000
      vertex 9.525000 11.044005 0.000000
    endloop
  endfacet
  facet normal -0.000000 0.000000 -1.000000
    outer loop
      vertex 6.729360 11.536952 0.000000
      vertex 7.450000 14.900000 0.000000
      vertex 8.170640 11.536952 0.000000
    endloop
  endfacet
  facet normal 0.000000 0.000000 -1.000000
    outer loop
      vertex 5.375000 11.044005 0.000000
      vertex 7.450000 14.900000 0.000000
      vertex 6.729360 11.536952 0.000000
    endloop
  endfacet
  facet normal 0.000000 0.000000 -1.000000
    outer loop
      vertex 4.270916 10.117569 0.000000
      vertex 7.450000 14.900000 0.000000
      vertex 5.375000 11.044005 0.000000
    endloop
  endfacet
  facet normal 0.000000 0.000000 -1.000000
    outer loop
      vertex 0.364629 5.147823 0.000000
      vertex 7.450000 14.900000 0.000000
      vertex 4.270916 10.117569 0.000000
    endloop
  endfacet
  facet normal 0.000000 -0.000000 -1.000000
    outer loop
      vertex 3.300000 7.450000 0.000000
      vertex 0.364629 5.147823 0.000000
      vertex 3.550276 8.869384 0.000000
    endloop
  endfacet
  facet normal 0.000000 0.000000 -1.000000
    outer loop
      vertex 3.550276 6.030616 0.000000
      vertex 0.364629 5.147823 0.000000
      vertex 3.300000 7.450000 0.000000
    endloop
  endfacet
  facet normal -0.000000 0.000000 -1.000000
    outer loop
      vertex 5.147823 0.364629 0.000000
      vertex 6.729360 3.363048 0.000000
      vertex 7.450000 0.000000 0.000000
    endloop
  endfacet
  facet normal 0.000000 -0.000000 -1.000000
    outer loop
      vertex 5.147823 0.364629 0.000000
      vertex 0.364629 5.147823 0.000000
      vertex 6.729360 3.363048 0.000000
    endloop
  endfacet
  facet normal 0.000000 0.000000 -1.000000
    outer loop
      vertex 0.364629 5.147823 0.000000
      vertex 4.270916 4.782431 0.000000
      vertex 5.375000 3.855995 0.000000
    endloop
  endfacet
  facet normal 0.000000 0.000000 -1.000000
    outer loop
      vertex 24.950000 4.725000 0.000000
      vertex 9.525000 3.855995 0.000000
      vertex 10.560640 4.725000 0.000000
    endloop
  endfacet
  facet normal 0.000000 0.000000 -1.000000
    outer loop
      vertex 5.375000 3.855995 0.000000
      vertex 6.729360 3.363048 0.000000
      vertex 0.364629 5.147823 0.000000
    endloop
  endfacet
  facet normal 0.000000 0.000000 -1.000000
    outer loop
      vertex 8.170640 3.363048 0.000000
      vertex 9.525000 3.855995 0.000000
      vertex 24.950000 4.725000 0.000000
    endloop
  endfacet
  facet normal -0.000000 0.000000 -1.000000
    outer loop
      vertex 8.170640 3.363048 0.000000
      vertex 24.950000 4.725000 0.000000
      vertex 24.950000 0.000000 0.000000
    endloop
  endfacet
  facet normal 0.000000 0.000000 -1.000000
    outer loop
      vertex 8.170640 3.363048 0.000000
      vertex 24.950000 0.000000 0.000000
      vertex 6.729360 3.363048 0.000000
    endloop
  endfacet
  facet normal 0.000000 0.000000 -1.000000
    outer loop
      vertex 6.729360 3.363048 0.000000
      vertex 24.950000 0.000000 0.000000
      vertex 7.450000 0.000000 0.000000
    endloop
  endfacet
  facet normal 0.000000 0.000000 -1.000000
    outer loop
      vertex 0.364629 5.147823 0.000000
      vertex 5.147823 0.364629 0.000000
      vertex 3.071000 1.422823 0.000000
    endloop
  endfacet
  facet normal 0.000000 0.000000 -1.000000
    outer loop
      vertex 0.364629 5.147823 0.000000
      vertex 3.071000 1.422823 0.000000
      vertex 1.422823 3.071000 0.000000
    endloop
  endfacet
  facet normal -0.000000 0.000000 -1.000000
    outer loop
      vertex 10.855734 9.725000 0.000000
      vertex 24.950000 14.900000 0.000000
      vertex 24.950000 9.725000 0.000000
    endloop
  endfacet
  facet normal 0.000000 0.000000 -1.000000
    outer loop
      vertex 4.270916 4.782431 0.000000
      vertex 0.364629 5.147823 0.000000
      vertex 3.550276 6.030616 0.000000
    endloop
  endfacet
  facet normal -0.987688 0.156434 0.000000
    outer loop
      vertex 0.000000 7.450000 0.000000
      vertex 0.000000 7.450000 14.900000
      vertex 0.364629 9.752177 0.000000
    endloop
  endfacet
  facet normal -0.987688 0.156434 0.000000
    outer loop
      vertex 0.364629 9.752177 0.000000
      vertex 0.000000 7.450000 14.900000
      vertex 0.364629 9.752177 14.900000
    endloop
  endfacet
  facet normal -0.987688 -0.156434 -0.000000
    outer loop
      vertex 0.000000 7.450000 0.000000
      vertex 0.364629 5.147823 0.000000
      vertex 0.000000 7.450000 14.900000
    endloop
  endfacet
  facet normal -0.987688 -0.156434 0.000000
    outer loop
      vertex 0.000000 7.450000 14.900000
      vertex 0.364629 5.147823 0.000000
      vertex 0.364629 5.147823 14.900000
    endloop
  endfacet
  facet normal -0.891007 -0.453990 -0.000000
    outer loop
      vertex 0.364629 5.147823 0.000000
      vertex 1.422823 3.071000 0.000000
      vertex 0.364629 5.147823 14.900000
    endloop
  endfacet
  facet normal -0.891007 -0.453990 0.000000
    outer loop
      vertex 0.364629 5.147823 14.900000
      vertex 1.422823 3.071000 0.000000
      vertex 1.422823 3.071000 14.900000
    endloop
  endfacet
  facet normal -0.707107 -0.707107 0.000000
    outer loop
      vertex 1.422823 3.071000 14.900000
      vertex 1.422823 3.071000 0.000000
      vertex 3.071000 1.422823 0.000000
    endloop
  endfacet
  facet normal -0.707107 -0.707107 0.000000
    outer loop
      vertex 3.071000 1.422823 14.900000
      vertex 1.422823 3.071000 14.900000
      vertex 3.071000 1.422823 0.000000
    endloop
  endfacet
  facet normal -0.453990 -0.891007 0.000000
    outer loop
      vertex 3.071000 1.422823 14.900000
      vertex 3.071000 1.422823 0.000000
      vertex 5.147823 0.364629 0.000000
    endloop
  endfacet
  facet normal -0.453990 -0.891007 0.000000
    outer loop
      vertex 5.147823 0.364629 14.900000
      vertex 3.071000 1.422823 14.900000
      vertex 5.147823 0.364629 0.000000
    endloop
  endfacet
  facet normal -0.156434 -0.987688 0.000000
    outer loop
      vertex 5.147823 0.364629 14.900000
      vertex 5.147823 0.364629 0.000000
      vertex 7.450000 0.000000 0.000000
    endloop
  endfacet
  facet normal -0.156434 -0.987688 0.000000
    outer loop
      vertex 7.450000 0.000000 14.900000
      vertex 5.147823 0.364629 14.900000
      vertex 7.450000 0.000000 0.000000
    endloop
  endfacet
  facet normal 0.000000 -1.000000 0.000000
    outer loop
      vertex 15.717579 0.000000 3.553115
      vertex 7.450000 0.000000 0.000000
      vertex 24.950000 0.000000 0.000000
    endloop
  endfacet
  facet normal 0.000000 -1.000000 0.000000
    outer loop
      vertex 7.450000 0.000000 14.900000
      vertex 7.450000 0.000000 0.000000
      vertex 13.642579 0.000000 5.060691
    endloop
  endfacet
  facet normal -0.000000 -1.000000 0.000000
    outer loop
      vertex 15.717579 0.000000 11.446885
      vertex 18.282421 0.000000 11.446885
      vertex 24.950000 0.000000 14.900000
    endloop
  endfacet
  facet normal 0.000000 -1.000000 0.000000
    outer loop
      vertex 7.450000 0.000000 14.900000
      vertex 13.642579 0.000000 5.060691
      vertex 12.850000 0.000000 7.500000
    endloop
  endfacet
  facet normal 0.000000 -1.000000 0.000000
    outer loop
      vertex 15.717579 0.000000 11.446885
      vertex 7.450000 0.000000 14.900000
      vertex 13.642579 0.000000 9.939309
    endloop
  endfacet
  facet normal 0.000000 -1.000000 0.000000
    outer loop
      vertex 21.150000 0.000000 7.500000
      vertex 20.357421 0.000000 5.060691
      vertex 24.950000 0.000000 0.000000
    endloop
  endfacet
  facet normal 0.000000 -1.000000 0.000000
    outer loop
      vertex 24.950000 0.000000 14.900000
      vertex 7.450000 0.000000 14.900000
      vertex 15.717579 0.000000 11.446885
    endloop
  endfacet
  facet normal 0.000000 -1.000000 0.000000
    outer loop
      vertex 24.950000 0.000000 14.900000
      vertex 20.357421 0.000000 9.939309
      vertex 24.950000 0.000000 0.000000
    endloop
  endfacet
  facet normal 0.000000 -1.000000 0.000000
    outer loop
      vertex 24.950000 0.000000 14.900000
      vertex 18.282421 0.000000 11.446885
      vertex 20.357421 0.000000 9.939309
    endloop
  endfacet
  facet normal 0.000000 -1.000000 0.000000
    outer loop
      vertex 20.357421 0.000000 9.939309
      vertex 21.150000 0.000000 7.500000
      vertex 24.950000 0.000000 0.000000
    endloop
  endfacet
  facet normal 0.000000 -1.000000 0.000000
    outer loop
      vertex 13.642579 0.000000 5.060691
      vertex 7.450000 0.000000 0.000000
      vertex 15.717579 0.000000 3.553115
    endloop
  endfacet
  facet normal 0.000000 -1.000000 0.000000
    outer loop
      vertex 18.282421 0.000000 3.553115
      vertex 15.717579 0.000000 3.553115
      vertex 24.950000 0.000000 0.000000
    endloop
  endfacet
  facet normal 0.000000 -1.000000 -0.000000
    outer loop
      vertex 12.850000 0.000000 7.500000
      vertex 13.642579 0.000000 9.939309
      vertex 7.450000 0.000000 14.900000
    endloop
  endfacet
  facet normal 0.000000 -1.000000 0.000000
    outer loop
      vertex 20.357421 0.000000 5.060691
      vertex 18.282421 0.000000 3.553115
      vertex 24.950000 0.000000 0.000000
    endloop
  endfacet
  facet normal 1.000000 0.000000 -0.000000
    outer loop
      vertex 24.950000 0.000000 14.900000
      vertex 24.950000 0.000000 0.000000
      vertex 24.950000 4.725000 0.000000
    endloop
  endfacet
  facet normal 1.000000 0.000000 0.000000
    outer loop
      vertex 24.950000 4.725000 14.900000
      vertex 24.950000 0.000000 14.900000
      vertex 24.950000 4.725000 0.000000
    endloop
  endfacet
  facet normal 0.000000 1.000000 0.000000
    outer loop
      vertex 15.717579 4.725000 11.446885
      vertex 10.560640 4.725000 14.900000
      vertex 18.282421 4.725000 11.446885
    endloop
  endfacet
  facet normal 0.000000 1.000000 -0.000000
    outer loop
      vertex 15.717579 4.725000 3.553115
      vertex 24.950000 4.725000 0.000000
      vertex 10.560640 4.725000 0.000000
    endloop
  endfacet
  facet normal 0.000000 1.000000 -0.000000
    outer loop
      vertex 20.357421 4.725000 5.060691
      vertex 24.950000 4.725000 0.000000
      vertex 18.282421 4.725000 3.553115
    endloop
  endfacet
  facet normal 0.000000 1.000000 -0.000000
    outer loop
      vertex 12.850000 4.725000 7.500000
      vertex 13.642579 4.725000 5.060691
      vertex 10.560640 4.725000 0.000000
    endloop
  endfacet
  facet normal 0.000000 1.000000 -0.000000
    outer loop
      vertex 13.642579 4.725000 5.060691
      vertex 15.717579 4.725000 3.553115
      vertex 10.560640 4.725000 0.000000
    endloop
  endfacet
  facet normal 0.000000 1.000000 0.000000
    outer loop
      vertex 24.950000 4.725000 14.900000
      vertex 24.950000 4.725000 0.000000
      vertex 20.357421 4.725000 5.060691
    endloop
  endfacet
  facet normal 0.000000 1.000000 0.000000
    outer loop
      vertex 24.950000 4.725000 14.900000
      vertex 20.357421 4.725000 5.060691
      vertex 21.150000 4.725000 7.500000
    endloop
  endfacet
  facet normal 0.000000 1.000000 0.000000
    outer loop
      vertex 24.950000 4.725000 14.900000
      vertex 21.150000 4.725000 7.500000
      vertex 20.357421 4.725000 9.939309
    endloop
  endfacet
  facet normal 0.000000 1.000000 0.000000
    outer loop
      vertex 24.950000 4.725000 14.900000
      vertex 20.357421 4.725000 9.939309
      vertex 18.282421 4.725000 11.446885
    endloop
  endfacet
  facet normal 0.000000 1.000000 0.000000
    outer loop
      vertex 24.950000 4.725000 14.900000
      vertex 18.282421 4.725000 11.446885
      vertex 10.560640 4.725000 14.900000
    endloop
  endfacet
  facet normal 0.000000 1.000000 0.000000
    outer loop
      vertex 13.642579 4.725000 9.939309
      vertex 10.560640 4.725000 14.900000
      vertex 15.717579 4.725000 11.446885
    endloop
  endfacet
  facet normal 0.000000 1.000000 0.000000
    outer loop
      vertex 12.850000 4.725000 7.500000
      vertex 10.560640 4.725000 14.900000
      vertex 13.642579 4.725000 9.939309
    endloop
  endfacet
  facet normal 0.000000 1.000000 -0.000000
    outer loop
      vertex 10.560640 4.725000 14.900000
      vertex 12.850000 4.725000 7.500000
      vertex 10.560640 4.725000 0.000000
    endloop
  endfacet
  facet normal 0.000000 1.000000 -0.000000
    outer loop
      vertex 18.282421 4.725000 3.553115
      vertex 24.950000 4.725000 0.000000
      vertex 15.717579 4.725000 3.553115
    endloop
  endfacet
  facet normal -0.642787 0.766045 0.000000
    outer loop
      vertex 10.560640 4.725000 14.900000
      vertex 10.560640 4.725000 0.000000
      vertex 9.525000 3.855995 14.900000
    endloop
  endfacet
  facet normal -0.642787 0.766045 0.000000
    outer loop
      vertex 9.525000 3.855995 14.900000
      vertex 10.560640 4.725000 0.000000
      vertex 9.525000 3.855995 0.000000
    endloop
  endfacet
  facet normal -0.342020 0.939693 0.000000
    outer loop
      vertex 9.525000 3.855995 14.900000
      vertex 9.525000 3.855995 0.000000
      vertex 8.170640 3.363048 14.900000
    endloop
  endfacet
  facet normal -0.342020 0.939693 0.000000
    outer loop
      vertex 8.170640 3.363048 14.900000
      vertex 9.525000 3.855995 0.000000
      vertex 8.170640 3.363048 0.000000
    endloop
  endfacet
  facet normal 0.000000 1.000000 0.000000
    outer loop
      vertex 8.170640 3.363048 14.900000
      vertex 8.170640 3.363048 0.000000
      vertex 6.729360 3.363048 14.900000
    endloop
  endfacet
  facet normal 0.000000 1.000000 -0.000000
    outer loop
      vertex 6.729360 3.363048 14.900000
      vertex 8.170640 3.363048 0.000000
      vertex 6.729360 3.363048 0.000000
    endloop
  endfacet
  facet normal 0.342020 0.939693 -0.000000
    outer loop
      vertex 6.729360 3.363048 14.900000
      vertex 6.729360 3.363048 0.000000
      vertex 5.375000 3.855995 14.900000
    endloop
  endfacet
  facet normal 0.342020 0.939693 -0.000000
    outer loop
      vertex 5.375000 3.855995 14.900000
      vertex 6.729360 3.363048 0.000000
      vertex 5.375000 3.855995 0.000000
    endloop
  endfacet
  facet normal 0.642787 0.766045 -0.000000
    outer loop
      vertex 5.375000 3.855995 14.900000
      vertex 5.375000 3.855995 0.000000
      vertex 4.270916 4.782431 14.900000
    endloop
  endfacet
  facet normal 0.642787 0.766045 -0.000000
    outer loop
      vertex 4.270916 4.782431 14.900000
      vertex 5.375000 3.855995 0.000000
      vertex 4.270916 4.782431 0.000000
    endloop
  endfacet
  facet normal 0.866025 0.500000 0.000000
    outer loop
      vertex 3.550276 6.030616 14.900000
      vertex 4.270916 4.782431 14.900000
      vertex 4.270916 4.782431 0.000000
    endloop
  endfacet
  facet normal 0.866025 0.500000 0.000000
    outer loop
      vertex 3.550276 6.030616 0.000000
      vertex 3.550276 6.030616 14.900000
      vertex 4.270916 4.782431 0.000000
    endloop
  endfacet
  facet normal 0.984808 0.173648 0.000000
    outer loop
      vertex 3.300000 7.450000 14.900000
      vertex 3.550276 6.030616 14.900000
      vertex 3.550276 6.030616 0.000000
    endloop
  endfacet
  facet normal 0.984808 0.173648 0.000000
    outer loop
      vertex 3.300000 7.450000 0.000000
      vertex 3.300000 7.450000 14.900000
      vertex 3.550276 6.030616 0.000000
    endloop
  endfacet
  facet normal 0.984808 -0.173648 0.000000
    outer loop
      vertex 3.550276 8.869384 0.000000
      vertex 3.550276 8.869384 14.900000
      vertex 3.300000 7.450000 14.900000
    endloop
  endfacet
  facet normal 0.984808 -0.173648 0.000000
    outer loop
      vertex 3.300000 7.450000 0.000000
      vertex 3.550276 8.869384 0.000000
      vertex 3.300000 7.450000 14.900000
    endloop
  endfacet
  facet normal 0.866025 -0.500000 0.000000
    outer loop
      vertex 4.270916 10.117569 0.000000
      vertex 4.270916 10.117569 14.900000
      vertex 3.550276 8.869384 14.900000
    endloop
  endfacet
  facet normal 0.866025 -0.500000 0.000000
    outer loop
      vertex 3.550276 8.869384 0.000000
      vertex 4.270916 10.117569 0.000000
      vertex 3.550276 8.869384 14.900000
    endloop
  endfacet
  facet normal 0.642787 -0.766045 0.000000
    outer loop
      vertex 5.375000 11.044005 0.000000
      vertex 5.375000 11.044005 14.900000
      vertex 4.270916 10.117569 14.900000
    endloop
  endfacet
  facet normal 0.642787 -0.766045 0.000000
    outer loop
      vertex 4.270916 10.117569 0.000000
      vertex 5.375000 11.044005 0.000000
      vertex 4.270916 10.117569 14.900000
    endloop
  endfacet
  facet normal 0.342020 -0.939693 0.000000
    outer loop
      vertex 6.729360 11.536952 0.000000
      vertex 6.729360 11.536952 14.900000
      vertex 5.375000 11.044005 14.900000
    endloop
  endfacet
  facet normal 0.342020 -0.939693 0.000000
    outer loop
      vertex 5.375000 11.044005 0.000000
      vertex 6.729360 11.536952 0.000000
      vertex 5.375000 11.044005 14.900000
    endloop
  endfacet
  facet normal 0.000000 -1.000000 0.000000
    outer loop
      vertex 8.170640 11.536952 0.000000
      vertex 8.170640 11.536952 14.900000
      vertex 6.729360 11.536952 14.900000
    endloop
  endfacet
  facet normal -0.000000 -1.000000 -0.000000
    outer loop
      vertex 6.729360 11.536952 0.000000
      vertex 8.170640 11.536952 0.000000
      vertex 6.729360 11.536952 14.900000
    endloop
  endfacet
  facet normal -0.342020 -0.939693 -0.000000
    outer loop
      vertex 9.525000 11.044005 0.000000
      vertex 9.525000 11.044005 14.900000
      vertex 8.170640 11.536952 14.900000
    endloop
  endfacet
  facet normal -0.342020 -0.939693 -0.000000
    outer loop
      vertex 8.170640 11.536952 0.000000
      vertex 9.525000 11.044005 0.000000
      vertex 8.170640 11.536952 14.900000
    endloop
  endfacet
  facet normal -0.642787 -0.766045 -0.000000
    outer loop
      vertex 10.629084 10.117569 0.000000
      vertex 10.629084 10.117569 14.900000
      vertex 9.525000 11.044005 14.900000
    endloop
  endfacet
  facet normal -0.642787 -0.766045 -0.000000
    outer loop
      vertex 9.525000 11.044005 0.000000
      vertex 10.629084 10.117569 0.000000
      vertex 9.525000 11.044005 14.900000
    endloop
  endfacet
  facet normal -0.866025 -0.500000 0.000000
    outer loop
      vertex 10.855734 9.725000 14.900000
      vertex 10.629084 10.117569 14.900000
      vertex 10.855734 9.725000 0.000000
    endloop
  endfacet
  facet normal -0.866025 -0.500000 0.000000
    outer loop
      vertex 10.855734 9.725000 0.000000
      vertex 10.629084 10.117569 14.900000
      vertex 10.629084 10.117569 0.000000
    endloop
  endfacet
  facet normal 0.000000 -1.000000 -0.000000
    outer loop
      vertex 15.717579 9.725000 11.446885
      vertex 24.950000 9.725000 14.900000
      vertex 10.855734 9.725000 14.900000
    endloop
  endfacet
  facet normal 0.000000 -1.000000 0.000000
    outer loop
      vertex 21.150000 9.725000 7.500000
      vertex 20.357421 9.725000 5.060691
      vertex 24.950000 9.725000 0.000000
    endloop
  endfacet
  facet normal 0.000000 -1.000000 -0.000000
    outer loop
      vertex 10.855734 9.725000 0.000000
      vertex 12.850000 9.725000 7.500000
      vertex 10.855734 9.725000 14.900000
    endloop
  endfacet
  facet normal 0.000000 -1.000000 -0.000000
    outer loop
      vertex 12.850000 9.725000 7.500000
      vertex 13.642579 9.725000 9.939309
      vertex 10.855734 9.725000 14.900000
    endloop
  endfacet
  facet normal 0.000000 -1.000000 -0.000000
    outer loop
      vertex 18.282421 9.725000 11.446885
      vertex 24.950000 9.725000 14.900000
      vertex 15.717579 9.725000 11.446885
    endloop
  endfacet
  facet normal 0.000000 -1.000000 -0.000000
    outer loop
      vertex 20.357421 9.725000 9.939309
      vertex 24.950000 9.725000 14.900000
      vertex 18.282421 9.725000 11.446885
    endloop
  endfacet
  facet normal 0.000000 -1.000000 0.000000
    outer loop
      vertex 24.950000 9.725000 0.000000
      vertex 24.950000 9.725000 14.900000
      vertex 20.357421 9.725000 9.939309
    endloop
  endfacet
  facet normal 0.000000 -1.000000 0.000000
    outer loop
      vertex 20.357421 9.725000 5.060691
      vertex 18.282421 9.725000 3.553115
      vertex 24.950000 9.725000 0.000000
    endloop
  endfacet
  facet normal 0.000000 -1.000000 0.000000
    outer loop
      vertex 24.950000 9.725000 0.000000
      vertex 20.357421 9.725000 9.939309
      vertex 21.150000 9.725000 7.500000
    endloop
  endfacet
  facet normal -0.000000 -1.000000 0.000000
    outer loop
      vertex 10.855734 9.725000 0.000000
      vertex 24.950000 9.725000 0.000000
      vertex 18.282421 9.725000 3.553115
    endloop
  endfacet
  facet normal 0.000000 -1.000000 0.000000
    outer loop
      vertex 10.855734 9.725000 0.000000
      vertex 18.282421 9.725000 3.553115
      vertex 15.717579 9.725000 3.553115
    endloop
  endfacet
  facet normal 0.000000 -1.000000 0.000000
    outer loop
      vertex 10.855734 9.725000 0.000000
      vertex 13.642579 9.725000 5.060691
      vertex 12.850000 9.725000 7.500000
    endloop
  endfacet
  facet normal 0.000000 -1.000000 0.000000
    outer loop
      vertex 10.855734 9.725000 0.000000
      vertex 15.717579 9.725000 3.553115
      vertex 13.642579 9.725000 5.060691
    endloop
  endfacet
  facet normal 0.000000 -1.000000 -0.000000
    outer loop
      vertex 13.642579 9.725000 9.939309
      vertex 15.717579 9.725000 11.446885
      vertex 10.855734 9.725000 14.900000
    endloop
  endfacet
  facet normal 1.000000 0.000000 -0.000000
    outer loop
      vertex 24.950000 9.725000 14.900000
      vertex 24.950000 9.725000 0.000000
      vertex 24.950000 14.900000 0.000000
    endloop
  endfacet
  facet normal 1.000000 0.000000 0.000000
    outer loop
      vertex 24.950000 14.900000 14.900000
      vertex 24.950000 9.725000 14.900000
      vertex 24.950000 14.900000 0.000000
    endloop
  endfacet
  facet normal 0.000000 1.000000 -0.000000
    outer loop
      vertex 18.282421 14.900000 3.553115
      vertex 24.950000 14.900000 0.000000
      vertex 15.717579 14.900000 3.553115
    endloop
  endfacet
  facet normal 0.000000 1.000000 0.000000
    outer loop
      vertex 18.282421 14.900000 11.446885
      vertex 7.450000 14.900000 14.900000
      vertex 24.950000 14.900000 14.900000
    endloop
  endfacet
  facet normal 0.000000 1.000000 0.000000
    outer loop
      vertex 7.450000 14.900000 0.000000
      vertex 7.450000 14.900000 14.900000
      vertex 12.850000 14.900000 7.500000
    endloop
  endfacet
  facet normal 0.000000 1.000000 0.000000
    outer loop
      vertex 7.450000 14.900000 0.000000
      vertex 12.850000 14.900000 7.500000
      vertex 13.642579 14.900000 5.060691
    endloop
  endfacet
  facet normal 0.000000 1.000000 0.000000
    outer loop
      vertex 7.450000 14.900000 0.000000
      vertex 13.642579 14.900000 5.060691
      vertex 15.717579 14.900000 3.553115
    endloop
  endfacet
  facet normal 0.000000 1.000000 0.000000
    outer loop
      vertex 7.450000 14.900000 0.000000
      vertex 15.717579 14.900000 3.553115
      vertex 24.950000 14.900000 0.000000
    endloop
  endfacet
  facet normal 0.000000 1.000000 -0.000000
    outer loop
      vertex 20.357421 14.900000 5.060691
      vertex 24.950000 14.900000 0.000000
      vertex 18.282421 14.900000 3.553115
    endloop
  endfacet
  facet normal 0.000000 1.000000 0.000000
    outer loop
      vertex 24.950000 14.900000 0.000000
      vertex 20.357421 14.900000 5.060691
      vertex 24.950000 14.900000 14.900000
    endloop
  endfacet
  facet normal 0.000000 1.000000 0.000000
    outer loop
      vertex 20.357421 14.900000 5.060691
      vertex 21.150000 14.900000 7.500000
      vertex 24.950000 14.900000 14.900000
    endloop
  endfacet
  facet normal 0.000000 1.000000 0.000000
    outer loop
      vertex 13.642579 14.900000 9.939309
      vertex 7.450000 14.900000 14.900000
      vertex 15.717579 14.900000 11.446885
    endloop
  endfacet
  facet normal 0.000000 1.000000 0.000000
    outer loop
      vertex 21.150000 14.900000 7.500000
      vertex 20.357421 14.900000 9.939309
      vertex 24.950000 14.900000 14.900000
    endloop
  endfacet
  facet normal 0.000000 1.000000 0.000000
    outer loop
      vertex 20.357421 14.900000 9.939309
      vertex 18.282421 14.900000 11.446885
      vertex 24.950000 14.900000 14.900000
    endloop
  endfacet
  facet normal 0.000000 1.000000 0.000000
    outer loop
      vertex 15.717579 14.900000 11.446885
      vertex 7.450000 14.900000 14.900000
      vertex 18.282421 14.900000 11.446885
    endloop
  endfacet
  facet normal 0.000000 1.000000 0.000000
    outer loop
      vertex 12.850000 14.900000 7.500000
      vertex 7.450000 14.900000 14.900000
      vertex 13.642579 14.900000 9.939309
    endloop
  endfacet
  facet normal -0.156434 0.987688 0.000000
    outer loop
      vertex 5.147823 14.535371 0.000000
      vertex 5.147823 14.535371 14.900000
      vertex 7.450000 14.900000 0.000000
    endloop
  endfacet
  facet normal -0.156434 0.987688 0.000000
    outer loop
      vertex 7.450000 14.900000 0.000000
      vertex 5.147823 14.535371 14.900000
      vertex 7.450000 14.900000 14.900000
    endloop
  endfacet
  facet normal -0.453990 0.891007 0.000000
    outer loop
      vertex 3.071000 13.477177 0.000000
      vertex 3.071000 13.477177 14.900000
      vertex 5.147823 14.535371 0.000000
    endloop
  endfacet
  facet normal -0.453990 0.891007 0.000000
    outer loop
      vertex 5.147823 14.535371 0.000000
      vertex 3.071000 13.477177 14.900000
      vertex 5.147823 14.535371 14.900000
    endloop
  endfacet
  facet normal -0.707107 0.707107 0.000000
    outer loop
      vertex 1.422823 11.829000 0.000000
      vertex 1.422823 11.829000 14.900000
      vertex 3.071000 13.477177 0.000000
    endloop
  endfacet
  facet normal -0.707107 0.707107 0.000000
    outer loop
      vertex 3.071000 13.477177 0.000000
      vertex 1.422823 11.829000 14.900000
      vertex 3.071000 13.477177 14.900000
    endloop
  endfacet
  facet normal -0.891007 0.453990 0.000000
    outer loop
      vertex 0.364629 9.752177 0.000000
      vertex 0.364629 9.752177 14.900000
      vertex 1.422823 11.829000 0.000000
    endloop
  endfacet
  facet normal -0.891007 0.453990 0.000000
    outer loop
      vertex 1.422823 11.829000 0.000000
      vertex 0.364629 9.752177 14.900000
      vertex 1.422823 11.829000 14.900000
    endloop
  endfacet
  facet normal 0.000000 0.000000 1.000000
    outer loop
      vertex 0.364629 9.752177 14.900000
      vertex 0.000000 7.450000 14.900000
      vertex 0.364629 5.147823 14.900000
    endloop
  endfacet
  facet normal 0.000000 0.000000 1.000000
    outer loop
      vertex 3.071000 1.422823 14.900000
      vertex 0.364629 9.752177 14.900000
      vertex 1.422823 3.071000 14.900000
    endloop
  endfacet
  facet normal 0.000000 0.000000 1.000000
    outer loop
      vertex 1.422823 3.071000 14.900000
      vertex 0.364629 9.752177 14.900000
      vertex 0.364629 5.147823 14.900000
    endloop
  endfacet
  facet normal 0.000000 0.000000 1.000000
    outer loop
      vertex 5.147823 0.364629 14.900000
      vertex 0.364629 9.752177 14.900000
      vertex 3.071000 1.422823 14.900000
    endloop
  endfacet
  facet normal 0.000000 0.000000 1.000000
    outer loop
      vertex 7.450000 0.000000 14.900000
      vertex 0.364629 9.752177 14.900000
      vertex 5.147823 0.364629 14.900000
    endloop
  endfacet
  facet normal -0.000000 -0.000000 1.000000
    outer loop
      vertex 4.270916 4.782431 14.900000
      vertex 0.364629 9.752177 14.900000
      vertex 7.450000 0.000000 14.900000
    endloop
  endfacet
  facet normal 0.000000 0.000000 1.000000
    outer loop
      vertex 4.270916 4.782431 14.900000
      vertex 3.550276 6.030616 14.900000
      vertex 0.364629 9.752177 14.900000
    endloop
  endfacet
  facet normal 0.000000 0.000000 1.000000
    outer loop
      vertex 24.950000 0.000000 14.900000
      vertex 10.560640 4.725000 14.900000
      vertex 7.450000 0.000000 14.900000
    endloop
  endfacet
  facet normal 0.000000 0.000000 1.000000
    outer loop
      vertex 10.560640 4.725000 14.900000
      vertex 9.525000 3.855995 14.900000
      vertex 7.450000 0.000000 14.900000
    endloop
  endfacet
  facet normal 0.000000 0.000000 1.000000
    outer loop
      vertex 3.550276 8.869384 14.900000
      vertex 4.270916 10.117569 14.900000
      vertex 0.364629 9.752177 14.900000
    endloop
  endfacet
  facet normal 0.000000 0.000000 1.000000
    outer loop
      vertex 9.525000 3.855995 14.900000
      vertex 8.170640 3.363048 14.900000
      vertex 7.450000 0.000000 14.900000
    endloop
  endfacet
  facet normal 0.000000 0.000000 1.000000
    outer loop
      vertex 8.170640 3.363048 14.900000
      vertex 6.729360 3.363048 14.900000
      vertex 7.450000 0.000000 14.900000
    endloop
  endfacet
  facet normal -0.000000 -0.000000 1.000000
    outer loop
      vertex 6.729360 3.363048 14.900000
      vertex 5.375000 3.855995 14.900000
      vertex 7.450000 0.000000 14.900000
    endloop
  endfacet
  facet normal -0.000000 -0.000000 1.000000
    outer loop
      vertex 5.375000 3.855995 14.900000
      vertex 4.270916 4.782431 14.900000
      vertex 7.450000 0.000000 14.900000
    endloop
  endfacet
  facet normal 0.000000 0.000000 1.000000
    outer loop
      vertex 3.300000 7.450000 14.900000
      vertex 3.550276 8.869384 14.900000
      vertex 0.364629 9.752177 14.900000
    endloop
  endfacet
  facet normal 0.000000 0.000000 1.000000
    outer loop
      vertex 10.855734 9.725000 14.900000
      vertex 24.950000 9.725000 14.900000
      vertex 10.629084 10.117569 14.900000
    endloop
  endfacet
  facet normal 0.000000 0.000000 1.000000
    outer loop
      vertex 3.550276 6.030616 14.900000
      vertex 3.300000 7.450000 14.900000
      vertex 0.364629 9.752177 14.900000
    endloop
  endfacet
  facet normal 0.000000 0.000000 1.000000
    outer loop
      vertex 5.375000 11.044005 14.900000
      vertex 0.364629 9.752177 14.900000
      vertex 4.270916 10.117569 14.900000
    endloop
  endfacet
  facet normal 0.000000 0.000000 1.000000
    outer loop
      vertex 6.729360 11.536952 14.900000
      vertex 0.364629 9.752177 14.900000
      vertex 5.375000 11.044005 14.900000
    endloop
  endfacet
  facet normal 0.000000 0.000000 1.000000
    outer loop
      vertex 10.629084 10.117569 14.900000
      vertex 24.950000 9.725000 14.900000
      vertex 9.525000 11.044005 14.900000
    endloop
  endfacet
  facet normal 0.000000 0.000000 1.000000
    outer loop
      vertex 7.450000 14.900000 14.900000
      vertex 0.364629 9.752177 14.900000
      vertex 6.729360 11.536952 14.900000
    endloop
  endfacet
  facet normal 0.000000 0.000000 1.000000
    outer loop
      vertex 24.950000 14.900000 14.900000
      vertex 6.729360 11.536952 14.900000
      vertex 8.170640 11.536952 14.900000
    endloop
  endfacet
  facet normal 0.000000 0.000000 1.000000
    outer loop
      vertex 24.950000 9.725000 14.900000
      vertex 8.170640 11.536952 14.900000
      vertex 9.525000 11.044005 14.900000
    endloop
  endfacet
  facet normal 0.000000 0.000000 1.000000
    outer loop
      vertex 24.950000 14.900000 14.900000
      vertex 8.170640 11.536952 14.900000
      vertex 24.950000 9.725000 14.900000
    endloop
  endfacet
  facet normal 0.000000 -0.000000 1.000000
    outer loop
      vertex 7.450000 14.900000 14.900000
      vertex 6.729360 11.536952 14.900000
      vertex 24.950000 14.900000 14.900000
    endloop
  endfacet
  facet normal 0.000000 -0.000000 1.000000
    outer loop
      vertex 5.147823 14.535371 14.900000
      vertex 0.364629 9.752177 14.900000
      vertex 7.450000 14.900000 14.900000
    endloop
  endfacet
  facet normal 0.000000 -0.000000 1.000000
    outer loop
      vertex 3.071000 13.477177 14.900000
      vertex 0.364629 9.752177 14.900000
      vertex 5.147823 14.535371 14.900000
    endloop
  endfacet
  facet normal 0.000000 -0.000000 1.000000
    outer loop
      vertex 1.422823 11.829000 14.900000
      vertex 0.364629 9.752177 14.900000
      vertex 3.071000 13.477177 14.900000
    endloop
  endfacet
  facet normal 0.000000 0.000000 1.000000
    outer loop
      vertex 24.950000 4.725000 14.900000
      vertex 10.560640 4.725000 14.900000
      vertex 24.950000 0.000000 14.900000
    endloop
  endfacet
  facet normal 0.951057 0.000000 0.309017
    outer loop
      vertex 13.642579 0.000000 5.060691
      vertex 13.642579 4.725000 5.060691
      vertex 12.850000 4.725000 7.500000
    endloop
  endfacet
  facet normal 0.951057 0.000000 0.309017
    outer loop
      vertex 12.850000 0.000000 7.500000
      vertex 13.642579 0.000000 5.060691
      vertex 12.850000 4.725000 7.500000
    endloop
  endfacet
  facet normal 0.587785 0.000000 0.809017
    outer loop
      vertex 15.717579 0.000000 3.553115
      vertex 15.717579 4.725000 3.553115
      vertex 13.642579 4.725000 5.060691
    endloop
  endfacet
  facet normal 0.587785 0.000000 0.809017
    outer loop
      vertex 13.642579 0.000000 5.060691
      vertex 15.717579 0.000000 3.553115
      vertex 13.642579 4.725000 5.060691
    endloop
  endfacet
  facet normal 0.000000 0.000000 1.000000
    outer loop
      vertex 18.282421 0.000000 3.553115
      vertex 18.282421 4.725000 3.553115
      vertex 15.717579 4.725000 3.553115
    endloop
  endfacet
  facet normal 0.000000 0.000000 1.000000
    outer loop
      vertex 15.717579 0.000000 3.553115
      vertex 18.282421 0.000000 3.553115
      vertex 15.717579 4.725000 3.553115
    endloop
  endfacet
  facet normal -0.587785 0.000000 0.809017
    outer loop
      vertex 20.357421 0.000000 5.060691
      vertex 20.357421 4.725000 5.060691
      vertex 18.282421 4.725000 3.553115
    endloop
  endfacet
  facet normal -0.587785 0.000000 0.809017
    outer loop
      vertex 18.282421 0.000000 3.553115
      vertex 20.357421 0.000000 5.060691
      vertex 18.282421 4.725000 3.553115
    endloop
  endfacet
  facet normal -0.951057 0.000000 0.309017
    outer loop
      vertex 21.150000 4.725000 7.500000
      vertex 20.357421 4.725000 5.060691
      vertex 21.150000 0.000000 7.500000
    endloop
  endfacet
  facet normal -0.951057 0.000000 0.309017
    outer loop
      vertex 21.150000 0.000000 7.500000
      vertex 20.357421 4.725000 5.060691
      vertex 20.357421 0.000000 5.060691
    endloop
  endfacet
  facet normal -0.951057 -0.000000 -0.309017
    outer loop
      vertex 21.150000 4.725000 7.500000
      vertex 21.150000 0.000000 7.500000
      vertex 20.357421 4.725000 9.939309
    endloop
  endfacet
  facet normal -0.951057 0.000000 -0.309017
    outer loop
      vertex 20.357421 4.725000 9.939309
      vertex 21.150000 0.000000 7.500000
      vertex 20.357421 0.000000 9.939309
    endloop
  endfacet
  facet normal -0.587785 0.000000 -0.809017
    outer loop
      vertex 20.357421 4.725000 9.939309
      vertex 20.357421 0.000000 9.939309
      vertex 18.282421 4.725000 11.446885
    endloop
  endfacet
  facet normal -0.587785 0.000000 -0.809017
    outer loop
      vertex 18.282421 4.725000 11.446885
      vertex 20.357421 0.000000 9.939309
      vertex 18.282421 0.000000 11.446885
    endloop
  endfacet
  facet normal 0.000000 0.000000 -1.000000
    outer loop
      vertex 18.282421 4.725000 11.446885
      vertex 18.282421 0.000000 11.446885
      vertex 15.717579 4.725000 11.446885
    endloop
  endfacet
  facet normal 0.000000 0.000000 -1.000000
    outer loop
      vertex 15.717579 4.725000 11.446885
      vertex 18.282421 0.000000 11.446885
      vertex 15.717579 0.000000 11.446885
    endloop
  endfacet
  facet normal 0.587785 0.000000 -0.809017
    outer loop
      vertex 15.717579 4.725000 11.446885
      vertex 15.717579 0.000000 11.446885
      vertex 13.642579 4.725000 9.939309
    endloop
  endfacet
  facet normal 0.587785 0.000000 -0.809017
    outer loop
      vertex 13.642579 4.725000 9.939309
      vertex 15.717579 0.000000 11.446885
      vertex 13.642579 0.000000 9.939309
    endloop
  endfacet
  facet normal 0.951057 0.000000 -0.309017
    outer loop
      vertex 12.850000 4.725000 7.500000
      vertex 13.642579 4.725000 9.939309
      vertex 13.642579 0.000000 9.939309
    endloop
  endfacet
  facet normal 0.951057 -0.000000 -0.309017
    outer loop
      vertex 12.850000 0.000000 7.500000
      vertex 12.850000 4.725000 7.500000
      vertex 13.642579 0.000000 9.939309
    endloop
  endfacet
  facet normal 0.951057 0.000000 0.309017
    outer loop
      vertex 13.642579 9.725000 5.060691
      vertex 13.642579 14.900000 5.060691
      vertex 12.850000 14.900000 7.500000
    endloop
  endfacet
  facet normal 0.951057 0.000000 0.309017
    outer loop
      vertex 12.850000 9.725000 7.500000
      vertex 13.642579 9.725000 5.060691
      vertex 12.850000 14.900000 7.500000
    endloop
  endfacet
  facet normal 0.951057 0.000000 -0.309017
    outer loop
      vertex 12.850000 14.900000 7.500000
      vertex 13.642579 14.900000 9.939309
      vertex 13.642579 9.725000 9.939309
    endloop
  endfacet
  facet normal 0.951057 0.000000 -0.309017
    outer loop
      vertex 12.850000 9.725000 7.500000
      vertex 12.850000 14.900000 7.500000
      vertex 13.642579 9.725000 9.939309
    endloop
  endfacet
  facet normal 0.587785 0.000000 0.809017
    outer loop
      vertex 15.717579 9.725000 3.553115
      vertex 15.717579 14.900000 3.553115
      vertex 13.642579 14.900000 5.060691
    endloop
  endfacet
  facet normal 0.587785 0.000000 0.809017
    outer loop
      vertex 13.642579 9.725000 5.060691
      vertex 15.717579 9.725000 3.553115
      vertex 13.642579 14.900000 5.060691
    endloop
  endfacet
  facet normal 0.000000 0.000000 1.000000
    outer loop
      vertex 18.282421 9.725000 3.553115
      vertex 18.282421 14.900000 3.553115
      vertex 15.717579 14.900000 3.553115
    endloop
  endfacet
  facet normal 0.000000 0.000000 1.000000
    outer loop
      vertex 15.717579 9.725000 3.553115
      vertex 18.282421 9.725000 3.553115
      vertex 15.717579 14.900000 3.553115
    endloop
  endfacet
  facet normal -0.587785 0.000000 0.809017
    outer loop
      vertex 20.357421 9.725000 5.060691
      vertex 20.357421 14.900000 5.060691
      vertex 18.282421 14.900000 3.553115
    endloop
  endfacet
  facet normal -0.587785 0.000000 0.809017
    outer loop
      vertex 18.282421 9.725000 3.553115
      vertex 20.357421 9.725000 5.060691
      vertex 18.282421 14.900000 3.553115
    endloop
  endfacet
  facet normal -0.951057 0.000000 0.309017
    outer loop
      vertex 21.150000 14.900000 7.500000
      vertex 20.357421 14.900000 5.060691
      vertex 21.150000 9.725000 7.500000
    endloop
  endfacet
  facet normal -0.951057 0.000000 0.309017
    outer loop
      vertex 21.150000 9.725000 7.500000
      vertex 20.357421 14.900000 5.060691
      vertex 20.357421 9.725000 5.060691
    endloop
  endfacet
  facet normal -0.951057 0.000000 -0.309017
    outer loop
      vertex 21.150000 14.900000 7.500000
      vertex 21.150000 9.725000 7.500000
      vertex 20.357421 14.900000 9.939309
    endloop
  endfacet
  facet normal -0.951057 0.000000 -0.309017
    outer loop
      vertex 20.357421 14.900000 9.939309
      vertex 21.150000 9.725000 7.500000
      vertex 20.357421 9.725000 9.939309
    endloop
  endfacet
  facet normal -0.587785 0.000000 -0.809017
    outer loop
      vertex 20.357421 14.900000 9.939309
      vertex 20.357421 9.725000 9.939309
      vertex 18.282421 14.900000 11.446885
    endloop
  endfacet
  facet normal -0.587785 0.000000 -0.809017
    outer loop
      vertex 18.282421 14.900000 11.446885
      vertex 20.357421 9.725000 9.939309
      vertex 18.282421 9.725000 11.446885
    endloop
  endfacet
  facet normal 0.000000 0.000000 -1.000000
    outer loop
      vertex 18.282421 14.900000 11.446885
      vertex 18.282421 9.725000 11.446885
      vertex 15.717579 14.900000 11.446885
    endloop
  endfacet
  facet normal 0.000000 0.000000 -1.000000
    outer loop
      vertex 15.717579 14.900000 11.446885
      vertex 18.282421 9.725000 11.446885
      vertex 15.717579 9.725000 11.446885
    endloop
  endfacet
  facet normal 0.587785 0.000000 -0.809017
    outer loop
      vertex 15.717579 14.900000 11.446885
      vertex 15.717579 9.725000 11.446885
      vertex 13.642579 14.900000 9.939309
    endloop
  endfacet
  facet normal 0.587785 0.000000 -0.809017
    outer loop
      vertex 13.642579 14.900000 9.939309
      vertex 15.717579 9.725000 11.446885
      vertex 13.642579 9.725000 9.939309
    endloop
  endfacet
endsolid OpenSCAD_Model
