solid OpenSCAD_Model
  facet normal -1.000000 -0.000000 -0.000000
    outer loop
      vertex -27.000000 0.000000 0.000000
      vertex -27.000000 0.000000 10.000000
      vertex -27.000000 4.000000 0.000000
    endloop
  endfacet
  facet normal -1.000000 0.000000 0.000000
    outer loop
      vertex -27.000000 4.000000 0.000000
      vertex -27.000000 0.000000 10.000000
      vertex -27.000000 4.000000 10.000000
    endloop
  endfacet
  facet normal 0.000000 -1.000000 0.000000
    outer loop
      vertex -23.490122 0.000000 3.430757
      vertex -27.000000 0.000000 0.000000
      vertex 22.950000 0.000000 0.000000
    endloop
  endfacet
  facet normal 0.000000 -1.000000 0.000000
    outer loop
      vertex -25.650000 0.000000 5.000000
      vertex -27.000000 0.000000 0.000000
      vertex -25.334878 0.000000 4.030154
    endloop
  endfacet
  facet normal 0.000000 -1.000000 0.000000
    outer loop
      vertex -27.000000 0.000000 10.000000
      vertex -27.000000 0.000000 0.000000
      vertex -25.650000 0.000000 5.000000
    endloop
  endfacet
  facet normal 0.000000 -1.000000 0.000000
    outer loop
      vertex -22.665122 0.000000 4.030154
      vertex -23.490122 0.000000 3.430757
      vertex 22.950000 0.000000 0.000000
    endloop
  endfacet
  facet normal 0.000000 -1.000000 0.000000
    outer loop
      vertex -27.000000 0.000000 10.000000
      vertex -25.334878 0.000000 5.969846
      vertex -24.509878 0.000000 6.569243
    endloop
  endfacet
  facet normal 0.000000 -1.000000 0.000000
    outer loop
      vertex -27.000000 0.000000 10.000000
      vertex -24.509878 0.000000 6.569243
      vertex -23.490122 0.000000 6.569243
    endloop
  endfacet
  facet normal 0.000000 -1.000000 0.000000
    outer loop
      vertex -22.350000 0.000000 5.000000
      vertex -22.665122 0.000000 4.030154
      vertex 22.950000 0.000000 0.000000
    endloop
  endfacet
  facet normal 0.000000 -1.000000 0.000000
    outer loop
      vertex -24.509878 0.000000 3.430757
      vertex -27.000000 0.000000 0.000000
      vertex -23.490122 0.000000 3.430757
    endloop
  endfacet
  facet normal 0.000000 -1.000000 0.000000
    outer loop
      vertex -25.334878 0.000000 4.030154
      vertex -27.000000 0.000000 0.000000
      vertex -24.509878 0.000000 3.430757
    endloop
  endfacet
  facet normal -0.000000 -1.000000 0.000000
    outer loop
      vertex 16.490122 0.000000 6.569243
      vertex 17.509878 0.000000 6.569243
      vertex 22.950000 0.000000 10.000000
    endloop
  endfacet
  facet normal 0.000000 -1.000000 0.000000
    outer loop
      vertex -27.000000 0.000000 10.000000
      vertex -23.490122 0.000000 6.569243
      vertex -5.334878 0.000000 4.030154
    endloop
  endfacet
  facet normal 0.000000 -1.000000 0.000000
    outer loop
      vertex -2.665122 0.000000 4.030154
      vertex -3.490122 0.000000 3.430757
      vertex 22.950000 0.000000 0.000000
    endloop
  endfacet
  facet normal 0.000000 -1.000000 0.000000
    outer loop
      vertex -27.000000 0.000000 10.000000
      vertex -5.334878 0.000000 4.030154
      vertex -5.650000 0.000000 5.000000
    endloop
  endfacet
  facet normal 0.000000 -1.000000 0.000000
    outer loop
      vertex -2.350000 0.000000 5.000000
      vertex -2.665122 0.000000 4.030154
      vertex 22.950000 0.000000 0.000000
    endloop
  endfacet
  facet normal 0.000000 -1.000000 0.000000
    outer loop
      vertex -4.509878 0.000000 6.569243
      vertex -27.000000 0.000000 10.000000
      vertex -5.334878 0.000000 5.969846
    endloop
  endfacet
  facet normal 0.000000 -1.000000 0.000000
    outer loop
      vertex 22.950000 0.000000 10.000000
      vertex -27.000000 0.000000 10.000000
      vertex -4.509878 0.000000 6.569243
    endloop
  endfacet
  facet normal 0.000000 -1.000000 0.000000
    outer loop
      vertex -2.665122 0.000000 5.969846
      vertex -2.350000 0.000000 5.000000
      vertex 22.950000 0.000000 0.000000
    endloop
  endfacet
  facet normal 0.000000 -1.000000 0.000000
    outer loop
      vertex 22.950000 0.000000 10.000000
      vertex -4.509878 0.000000 6.569243
      vertex -3.490122 0.000000 6.569243
    endloop
  endfacet
  facet normal 0.000000 -1.000000 0.000000
    outer loop
      vertex 16.490122 0.000000 3.430757
      vertex -2.665122 0.000000 5.969846
      vertex 22.950000 0.000000 0.000000
    endloop
  endfacet
  facet normal -0.000000 -1.000000 0.000000
    outer loop
      vertex -3.490122 0.000000 6.569243
      vertex -2.665122 0.000000 5.969846
      vertex 22.950000 0.000000 10.000000
    endloop
  endfacet
  facet normal -0.000000 -1.000000 0.000000
    outer loop
      vertex 17.509878 0.000000 6.569243
      vertex 18.334878 0.000000 5.969846
      vertex 22.950000 0.000000 10.000000
    endloop
  endfacet
  facet normal 0.000000 -1.000000 -0.000000
    outer loop
      vertex -5.650000 0.000000 5.000000
      vertex -5.334878 0.000000 5.969846
      vertex -27.000000 0.000000 10.000000
    endloop
  endfacet
  facet normal 0.000000 -1.000000 0.000000
    outer loop
      vertex -4.509878 0.000000 3.430757
      vertex -5.334878 0.000000 4.030154
      vertex -23.490122 0.000000 6.569243
    endloop
  endfacet
  facet normal 0.000000 -1.000000 0.000000
    outer loop
      vertex -3.490122 0.000000 3.430757
      vertex -4.509878 0.000000 3.430757
      vertex 22.950000 0.000000 0.000000
    endloop
  endfacet
  facet normal 0.000000 -1.000000 0.000000
    outer loop
      vertex -4.509878 0.000000 3.430757
      vertex -23.490122 0.000000 6.569243
      vertex -22.665122 0.000000 5.969846
    endloop
  endfacet
  facet normal 0.000000 -1.000000 0.000000
    outer loop
      vertex 15.350000 0.000000 5.000000
      vertex -2.665122 0.000000 5.969846
      vertex 15.665122 0.000000 4.030154
    endloop
  endfacet
  facet normal 0.000000 -1.000000 0.000000
    outer loop
      vertex 17.509878 0.000000 3.430757
      vertex 16.490122 0.000000 3.430757
      vertex 22.950000 0.000000 0.000000
    endloop
  endfacet
  facet normal 0.000000 -1.000000 0.000000
    outer loop
      vertex 15.665122 0.000000 5.969846
      vertex -2.665122 0.000000 5.969846
      vertex 15.350000 0.000000 5.000000
    endloop
  endfacet
  facet normal 0.000000 -1.000000 0.000000
    outer loop
      vertex 16.490122 0.000000 6.569243
      vertex -2.665122 0.000000 5.969846
      vertex 15.665122 0.000000 5.969846
    endloop
  endfacet
  facet normal 0.000000 -1.000000 0.000000
    outer loop
      vertex 22.950000 0.000000 10.000000
      vertex -2.665122 0.000000 5.969846
      vertex 16.490122 0.000000 6.569243
    endloop
  endfacet
  facet normal 0.000000 -1.000000 0.000000
    outer loop
      vertex 22.950000 0.000000 10.000000
      vertex 18.334878 0.000000 5.969846
      vertex 22.950000 0.000000 0.000000
    endloop
  endfacet
  facet normal 0.000000 -1.000000 0.000000
    outer loop
      vertex 18.334878 0.000000 5.969846
      vertex 18.650000 0.000000 5.000000
      vertex 22.950000 0.000000 0.000000
    endloop
  endfacet
  facet normal 0.000000 -1.000000 0.000000
    outer loop
      vertex 18.650000 0.000000 5.000000
      vertex 18.334878 0.000000 4.030154
      vertex 22.950000 0.000000 0.000000
    endloop
  endfacet
  facet normal 0.000000 -1.000000 0.000000
    outer loop
      vertex 18.334878 0.000000 4.030154
      vertex 17.509878 0.000000 3.430757
      vertex 22.950000 0.000000 0.000000
    endloop
  endfacet
  facet normal 0.000000 -1.000000 0.000000
    outer loop
      vertex 15.665122 0.000000 4.030154
      vertex -2.665122 0.000000 5.969846
      vertex 16.490122 0.000000 3.430757
    endloop
  endfacet
  facet normal 0.000000 -1.000000 -0.000000
    outer loop
      vertex -25.650000 0.000000 5.000000
      vertex -25.334878 0.000000 5.969846
      vertex -27.000000 0.000000 10.000000
    endloop
  endfacet
  facet normal 0.000000 -1.000000 0.000000
    outer loop
      vertex -4.509878 0.000000 3.430757
      vertex -22.350000 0.000000 5.000000
      vertex 22.950000 0.000000 0.000000
    endloop
  endfacet
  facet normal 0.000000 -1.000000 0.000000
    outer loop
      vertex -22.665122 0.000000 5.969846
      vertex -22.350000 0.000000 5.000000
      vertex -4.509878 0.000000 3.430757
    endloop
  endfacet
  facet normal -0.000000 -0.000000 -1.000000
    outer loop
      vertex -27.000000 0.000000 0.000000
      vertex -27.000000 4.000000 0.000000
      vertex 22.950000 0.000000 0.000000
    endloop
  endfacet
  facet normal 0.000000 0.000000 -1.000000
    outer loop
      vertex 22.950000 0.000000 0.000000
      vertex -27.000000 4.000000 0.000000
      vertex 0.949474 4.000000 0.000000
    endloop
  endfacet
  facet normal 0.000000 0.000000 -1.000000
    outer loop
      vertex 5.568144 3.670723 0.000000
      vertex 0.949474 4.000000 0.000000
      vertex 0.364629 5.147823 0.000000
    endloop
  endfacet
  facet normal 0.000000 0.000000 -1.000000
    outer loop
      vertex 3.513209 5.924879 0.000000
      vertex 0.364629 5.147823 0.000000
      vertex 0.000000 7.450000 0.000000
    endloop
  endfacet
  facet normal 0.000000 0.000000 -1.000000
    outer loop
      vertex 3.228114 7.450000 0.000000
      vertex 0.000000 7.450000 0.000000
      vertex 0.364629 9.752177 0.000000
    endloop
  endfacet
  facet normal 0.000000 0.000000 -1.000000
    outer loop
      vertex 3.513209 8.975121 0.000000
      vertex 0.364629 9.752177 0.000000
      vertex 1.422823 11.829000 0.000000
    endloop
  endfacet
  facet normal 0.000000 0.000000 -1.000000
    outer loop
      vertex 5.568144 11.229277 0.000000
      vertex 1.422823 11.829000 0.000000
      vertex 3.071000 13.477177 0.000000
    endloop
  endfacet
  facet normal 0.000000 0.000000 -1.000000
    outer loop
      vertex 8.605374 11.510718 0.000000
      vertex 3.071000 13.477177 0.000000
      vertex 5.147823 14.535371 0.000000
    endloop
  endfacet
  facet normal 0.000000 0.000000 -1.000000
    outer loop
      vertex 9.932274 10.850000 0.000000
      vertex 5.147823 14.535371 0.000000
      vertex 7.450000 14.900000 0.000000
    endloop
  endfacet
  facet normal 0.000000 0.000000 -1.000000
    outer loop
      vertex 22.950000 10.850000 0.000000
      vertex 7.450000 14.900000 0.000000
      vertex 22.950000 14.900000 0.000000
    endloop
  endfacet
  facet normal -0.000000 -0.000000 -1.000000
    outer loop
      vertex 8.605374 11.510718 0.000000
      vertex 5.147823 14.535371 0.000000
      vertex 9.932274 10.850000 0.000000
    endloop
  endfacet
  facet normal -0.000000 -0.000000 -1.000000
    outer loop
      vertex 7.060454 11.653876 0.000000
      vertex 3.071000 13.477177 0.000000
      vertex 8.605374 11.510718 0.000000
    endloop
  endfacet
  facet normal 0.000000 -0.000000 -1.000000
    outer loop
      vertex 5.568144 11.229277 0.000000
      vertex 3.071000 13.477177 0.000000
      vertex 7.060454 11.653876 0.000000
    endloop
  endfacet
  facet normal 0.000000 -0.000000 -1.000000
    outer loop
      vertex 4.329989 10.294266 0.000000
      vertex 1.422823 11.829000 0.000000
      vertex 5.568144 11.229277 0.000000
    endloop
  endfacet
  facet normal 0.000000 -0.000000 -1.000000
    outer loop
      vertex 3.513209 8.975121 0.000000
      vertex 1.422823 11.829000 0.000000
      vertex 4.329989 10.294266 0.000000
    endloop
  endfacet
  facet normal 0.000000 -0.000000 -1.000000
    outer loop
      vertex 3.228114 7.450000 0.000000
      vertex 0.364629 9.752177 0.000000
      vertex 3.513209 8.975121 0.000000
    endloop
  endfacet
  facet normal 0.000000 0.000000 -1.000000
    outer loop
      vertex 3.513209 5.924879 0.000000
      vertex 0.000000 7.450000 0.000000
      vertex 3.228114 7.450000 0.000000
    endloop
  endfacet
  facet normal 0.000000 0.000000 -1.000000
    outer loop
      vertex 4.329989 4.605734 0.000000
      vertex 0.364629 5.147823 0.000000
      vertex 3.513209 5.924879 0.000000
    endloop
  endfacet
  facet normal 0.000000 0.000000 -1.000000
    outer loop
      vertex 5.568144 3.670723 0.000000
      vertex 0.364629 5.147823 0.000000
      vertex 4.329989 4.605734 0.000000
    endloop
  endfacet
  facet normal 0.000000 0.000000 -1.000000
    outer loop
      vertex 7.060454 3.246124 0.000000
      vertex 0.949474 4.000000 0.000000
      vertex 5.568144 3.670723 0.000000
    endloop
  endfacet
  facet normal 0.000000 0.000000 -1.000000
    outer loop
      vertex 8.605374 3.389282 0.000000
      vertex 22.950000 0.000000 0.000000
      vertex 7.060454 3.246124 0.000000
    endloop
  endfacet
  facet normal 0.000000 0.000000 -1.000000
    outer loop
      vertex 22.950000 0.000000 0.000000
      vertex 0.949474 4.000000 0.000000
      vertex 7.060454 3.246124 0.000000
    endloop
  endfacet
  facet normal 0.000000 0.000000 -1.000000
    outer loop
      vertex 22.950000 4.050000 0.000000
      vertex 22.950000 0.000000 0.000000
      vertex 9.932274 4.050000 0.000000
    endloop
  endfacet
  facet normal 0.000000 0.000000 -1.000000
    outer loop
      vertex 9.932274 4.050000 0.000000
      vertex 22.950000 0.000000 0.000000
      vertex 8.605374 3.389282 0.000000
    endloop
  endfacet
  facet normal -0.000000 -0.000000 -1.000000
    outer loop
      vertex 9.932274 10.850000 0.000000
      vertex 7.450000 14.900000 0.000000
      vertex 22.950000 10.850000 0.000000
    endloop
  endfacet
  facet normal 0.000000 1.000000 0.000000
    outer loop
      vertex -22.665122 4.000000 5.969846
      vertex -27.000000 4.000000 10.000000
      vertex 0.949474 4.000000 0.000000
    endloop
  endfacet
  facet normal 0.000000 1.000000 0.000000
    outer loop
      vertex -4.509878 4.000000 6.569243
      vertex -27.000000 4.000000 10.000000
      vertex 0.949474 4.000000 10.000000
    endloop
  endfacet
  facet normal 0.000000 1.000000 0.000000
    outer loop
      vertex -27.000000 4.000000 0.000000
      vertex -27.000000 4.000000 10.000000
      vertex -25.650000 4.000000 5.000000
    endloop
  endfacet
  facet normal 0.000000 1.000000 0.000000
    outer loop
      vertex -27.000000 4.000000 0.000000
      vertex -25.650000 4.000000 5.000000
      vertex -25.334878 4.000000 4.030154
    endloop
  endfacet
  facet normal 0.000000 1.000000 0.000000
    outer loop
      vertex -27.000000 4.000000 0.000000
      vertex -25.334878 4.000000 4.030154
      vertex -24.509878 4.000000 3.430757
    endloop
  endfacet
  facet normal 0.000000 1.000000 0.000000
    outer loop
      vertex -27.000000 4.000000 0.000000
      vertex -24.509878 4.000000 3.430757
      vertex 0.949474 4.000000 0.000000
    endloop
  endfacet
  facet normal 0.000000 1.000000 0.000000
    outer loop
      vertex -24.509878 4.000000 3.430757
      vertex -23.490122 4.000000 3.430757
      vertex 0.949474 4.000000 0.000000
    endloop
  endfacet
  facet normal 0.000000 1.000000 -0.000000
    outer loop
      vertex -22.350000 4.000000 5.000000
      vertex 0.949474 4.000000 0.000000
      vertex -22.665122 4.000000 4.030154
    endloop
  endfacet
  facet normal 0.000000 1.000000 -0.000000
    outer loop
      vertex -3.490122 4.000000 3.430757
      vertex 0.949474 4.000000 0.000000
      vertex -4.509878 4.000000 3.430757
    endloop
  endfacet
  facet normal 0.000000 1.000000 0.000000
    outer loop
      vertex -24.509878 4.000000 6.569243
      vertex -27.000000 4.000000 10.000000
      vertex -23.490122 4.000000 6.569243
    endloop
  endfacet
  facet normal 0.000000 1.000000 0.000000
    outer loop
      vertex -23.490122 4.000000 6.569243
      vertex -27.000000 4.000000 10.000000
      vertex -22.665122 4.000000 5.969846
    endloop
  endfacet
  facet normal 0.000000 1.000000 0.000000
    outer loop
      vertex -22.350000 4.000000 5.000000
      vertex -22.665122 4.000000 5.969846
      vertex 0.949474 4.000000 0.000000
    endloop
  endfacet
  facet normal 0.000000 1.000000 0.000000
    outer loop
      vertex -25.334878 4.000000 5.969846
      vertex -27.000000 4.000000 10.000000
      vertex -24.509878 4.000000 6.569243
    endloop
  endfacet
  facet normal 0.000000 1.000000 0.000000
    outer loop
      vertex -25.650000 4.000000 5.000000
      vertex -27.000000 4.000000 10.000000
      vertex -25.334878 4.000000 5.969846
    endloop
  endfacet
  facet normal 0.000000 1.000000 0.000000
    outer loop
      vertex -5.334878 4.000000 4.030154
      vertex -27.000000 4.000000 10.000000
      vertex -5.650000 4.000000 5.000000
    endloop
  endfacet
  facet normal 0.000000 1.000000 0.000000
    outer loop
      vertex -4.509878 4.000000 3.430757
      vertex -27.000000 4.000000 10.000000
      vertex -5.334878 4.000000 4.030154
    endloop
  endfacet
  facet normal 0.000000 1.000000 0.000000
    outer loop
      vertex 0.949474 4.000000 0.000000
      vertex -27.000000 4.000000 10.000000
      vertex -4.509878 4.000000 3.430757
    endloop
  endfacet
  facet normal 0.000000 1.000000 0.000000
    outer loop
      vertex -2.665122 4.000000 5.969846
      vertex 0.949474 4.000000 10.000000
      vertex -2.350000 4.000000 5.000000
    endloop
  endfacet
  facet normal 0.000000 1.000000 0.000000
    outer loop
      vertex 0.949474 4.000000 0.000000
      vertex -3.490122 4.000000 3.430757
      vertex -2.665122 4.000000 4.030154
    endloop
  endfacet
  facet normal 0.000000 1.000000 0.000000
    outer loop
      vertex 0.949474 4.000000 0.000000
      vertex -2.665122 4.000000 4.030154
      vertex 0.949474 4.000000 10.000000
    endloop
  endfacet
  facet normal 0.000000 1.000000 0.000000
    outer loop
      vertex -2.665122 4.000000 4.030154
      vertex -2.350000 4.000000 5.000000
      vertex 0.949474 4.000000 10.000000
    endloop
  endfacet
  facet normal 0.000000 1.000000 0.000000
    outer loop
      vertex -4.509878 4.000000 6.569243
      vertex 0.949474 4.000000 10.000000
      vertex -3.490122 4.000000 6.569243
    endloop
  endfacet
  facet normal 0.000000 1.000000 0.000000
    outer loop
      vertex -2.665122 4.000000 5.969846
      vertex -3.490122 4.000000 6.569243
      vertex 0.949474 4.000000 10.000000
    endloop
  endfacet
  facet normal 0.000000 1.000000 0.000000
    outer loop
      vertex -5.334878 4.000000 5.969846
      vertex -27.000000 4.000000 10.000000
      vertex -4.509878 4.000000 6.569243
    endloop
  endfacet
  facet normal 0.000000 1.000000 0.000000
    outer loop
      vertex -5.650000 4.000000 5.000000
      vertex -27.000000 4.000000 10.000000
      vertex -5.334878 4.000000 5.969846
    endloop
  endfacet
  facet normal 0.000000 1.000000 -0.000000
    outer loop
      vertex -22.665122 4.000000 4.030154
      vertex 0.949474 4.000000 0.000000
      vertex -23.490122 4.000000 3.430757
    endloop
  endfacet
  facet normal 0.000000 -0.000000 1.000000
    outer loop
      vertex -27.000000 4.000000 10.000000
      vertex -27.000000 0.000000 10.000000
      vertex 22.950000 0.000000 10.000000
    endloop
  endfacet
  facet normal -0.000000 -0.000000 1.000000
    outer loop
      vertex 7.060454 3.246124 10.000000
      vertex -27.000000 4.000000 10.000000
      vertex 22.950000 0.000000 10.000000
    endloop
  endfacet
  facet normal 0.000000 0.000000 1.000000
    outer loop
      vertex 22.950000 4.050000 10.000000
      vertex 8.605374 3.389282 10.000000
      vertex 22.950000 0.000000 10.000000
    endloop
  endfacet
  facet normal 0.000000 -0.000000 1.000000
    outer loop
      vertex 8.605374 3.389282 10.000000
      vertex 7.060454 3.246124 10.000000
      vertex 22.950000 0.000000 10.000000
    endloop
  endfacet
  facet normal 0.000000 -0.000000 1.000000
    outer loop
      vertex 0.949474 4.000000 10.000000
      vertex -27.000000 4.000000 10.000000
      vertex 5.568144 3.670723 10.000000
    endloop
  endfacet
  facet normal 0.000000 0.000000 1.000000
    outer loop
      vertex 0.364629 5.147823 10.000000
      vertex 0.949474 4.000000 10.000000
      vertex 4.329989 4.605734 10.000000
    endloop
  endfacet
  facet normal 0.000000 0.000000 1.000000
    outer loop
      vertex 0.000000 7.450000 10.000000
      vertex 3.513209 5.924879 10.000000
      vertex 3.228114 7.450000 10.000000
    endloop
  endfacet
  facet normal 0.000000 0.000000 1.000000
    outer loop
      vertex 0.000000 7.450000 10.000000
      vertex 0.364629 5.147823 10.000000
      vertex 3.513209 5.924879 10.000000
    endloop
  endfacet
  facet normal 0.000000 0.000000 1.000000
    outer loop
      vertex 0.364629 9.752177 10.000000
      vertex 3.513209 8.975121 10.000000
      vertex 4.329989 10.294266 10.000000
    endloop
  endfacet
  facet normal 0.000000 -0.000000 1.000000
    outer loop
      vertex 0.364629 9.752177 10.000000
      vertex 0.000000 7.450000 10.000000
      vertex 3.513209 8.975121 10.000000
    endloop
  endfacet
  facet normal 0.000000 0.000000 1.000000
    outer loop
      vertex 22.950000 10.850000 10.000000
      vertex 7.060454 11.653876 10.000000
      vertex 8.605374 11.510718 10.000000
    endloop
  endfacet
  facet normal -0.000000 0.000000 1.000000
    outer loop
      vertex 22.950000 10.850000 10.000000
      vertex 8.605374 11.510718 10.000000
      vertex 9.932274 10.850000 10.000000
    endloop
  endfacet
  facet normal 0.000000 0.000000 1.000000
    outer loop
      vertex 22.950000 14.900000 10.000000
      vertex 7.060454 11.653876 10.000000
      vertex 22.950000 10.850000 10.000000
    endloop
  endfacet
  facet normal 0.000000 -0.000000 1.000000
    outer loop
      vertex 7.450000 14.900000 10.000000
      vertex 7.060454 11.653876 10.000000
      vertex 22.950000 14.900000 10.000000
    endloop
  endfacet
  facet normal 0.000000 0.000000 1.000000
    outer loop
      vertex 1.422823 11.829000 10.000000
      vertex 5.568144 11.229277 10.000000
      vertex 7.060454 11.653876 10.000000
    endloop
  endfacet
  facet normal 0.000000 -0.000000 1.000000
    outer loop
      vertex 1.422823 11.829000 10.000000
      vertex 0.364629 9.752177 10.000000
      vertex 5.568144 11.229277 10.000000
    endloop
  endfacet
  facet normal 0.000000 0.000000 1.000000
    outer loop
      vertex 7.450000 14.900000 10.000000
      vertex 3.071000 13.477177 10.000000
      vertex 7.060454 11.653876 10.000000
    endloop
  endfacet
  facet normal 0.000000 -0.000000 1.000000
    outer loop
      vertex 3.071000 13.477177 10.000000
      vertex 1.422823 11.829000 10.000000
      vertex 7.060454 11.653876 10.000000
    endloop
  endfacet
  facet normal 0.000000 0.000000 1.000000
    outer loop
      vertex 5.568144 11.229277 10.000000
      vertex 0.364629 9.752177 10.000000
      vertex 4.329989 10.294266 10.000000
    endloop
  endfacet
  facet normal 0.000000 0.000000 1.000000
    outer loop
      vertex 3.513209 8.975121 10.000000
      vertex 0.000000 7.450000 10.000000
      vertex 3.228114 7.450000 10.000000
    endloop
  endfacet
  facet normal 0.000000 -0.000000 1.000000
    outer loop
      vertex 3.513209 5.924879 10.000000
      vertex 0.364629 5.147823 10.000000
      vertex 4.329989 4.605734 10.000000
    endloop
  endfacet
  facet normal 0.000000 0.000000 1.000000
    outer loop
      vertex 7.060454 3.246124 10.000000
      vertex 5.568144 3.670723 10.000000
      vertex -27.000000 4.000000 10.000000
    endloop
  endfacet
  facet normal 0.000000 0.000000 1.000000
    outer loop
      vertex 5.568144 3.670723 10.000000
      vertex 4.329989 4.605734 10.000000
      vertex 0.949474 4.000000 10.000000
    endloop
  endfacet
  facet normal 0.000000 -0.000000 1.000000
    outer loop
      vertex 5.147823 14.535371 10.000000
      vertex 3.071000 13.477177 10.000000
      vertex 7.450000 14.900000 10.000000
    endloop
  endfacet
  facet normal 0.000000 -0.000000 1.000000
    outer loop
      vertex 9.932274 4.050000 10.000000
      vertex 8.605374 3.389282 10.000000
      vertex 22.950000 4.050000 10.000000
    endloop
  endfacet
  facet normal 1.000000 0.000000 -0.000000
    outer loop
      vertex 22.950000 0.000000 10.000000
      vertex 22.950000 0.000000 0.000000
      vertex 22.950000 4.050000 0.000000
    endloop
  endfacet
  facet normal 1.000000 0.000000 0.000000
    outer loop
      vertex 22.950000 4.050000 10.000000
      vertex 22.950000 0.000000 10.000000
      vertex 22.950000 4.050000 0.000000
    endloop
  endfacet
  facet normal 0.951057 0.000000 0.309017
    outer loop
      vertex -25.334878 0.000000 4.030154
      vertex -25.334878 4.000000 4.030154
      vertex -25.650000 4.000000 5.000000
    endloop
  endfacet
  facet normal 0.951057 0.000000 0.309017
    outer loop
      vertex -25.650000 0.000000 5.000000
      vertex -25.334878 0.000000 4.030154
      vertex -25.650000 4.000000 5.000000
    endloop
  endfacet
  facet normal 0.587785 0.000000 0.809017
    outer loop
      vertex -24.509878 0.000000 3.430757
      vertex -24.509878 4.000000 3.430757
      vertex -25.334878 4.000000 4.030154
    endloop
  endfacet
  facet normal 0.587785 0.000000 0.809017
    outer loop
      vertex -25.334878 0.000000 4.030154
      vertex -24.509878 0.000000 3.430757
      vertex -25.334878 4.000000 4.030154
    endloop
  endfacet
  facet normal 0.000000 0.000000 1.000000
    outer loop
      vertex -23.490122 0.000000 3.430757
      vertex -23.490122 4.000000 3.430757
      vertex -24.509878 4.000000 3.430757
    endloop
  endfacet
  facet normal 0.000000 0.000000 1.000000
    outer loop
      vertex -24.509878 0.000000 3.430757
      vertex -23.490122 0.000000 3.430757
      vertex -24.509878 4.000000 3.430757
    endloop
  endfacet
  facet normal -0.587785 0.000000 0.809017
    outer loop
      vertex -22.665122 0.000000 4.030154
      vertex -22.665122 4.000000 4.030154
      vertex -23.490122 4.000000 3.430757
    endloop
  endfacet
  facet normal -0.587785 0.000000 0.809017
    outer loop
      vertex -23.490122 0.000000 3.430757
      vertex -22.665122 0.000000 4.030154
      vertex -23.490122 4.000000 3.430757
    endloop
  endfacet
  facet normal -0.951057 0.000000 0.309017
    outer loop
      vertex -22.350000 4.000000 5.000000
      vertex -22.665122 4.000000 4.030154
      vertex -22.350000 0.000000 5.000000
    endloop
  endfacet
  facet normal -0.951057 0.000000 0.309017
    outer loop
      vertex -22.350000 0.000000 5.000000
      vertex -22.665122 4.000000 4.030154
      vertex -22.665122 0.000000 4.030154
    endloop
  endfacet
  facet normal -0.951057 -0.000000 -0.309017
    outer loop
      vertex -22.350000 4.000000 5.000000
      vertex -22.350000 0.000000 5.000000
      vertex -22.665122 4.000000 5.969846
    endloop
  endfacet
  facet normal -0.951057 0.000000 -0.309017
    outer loop
      vertex -22.665122 4.000000 5.969846
      vertex -22.350000 0.000000 5.000000
      vertex -22.665122 0.000000 5.969846
    endloop
  endfacet
  facet normal -0.587785 0.000000 -0.809017
    outer loop
      vertex -22.665122 4.000000 5.969846
      vertex -22.665122 0.000000 5.969846
      vertex -23.490122 4.000000 6.569243
    endloop
  endfacet
  facet normal -0.587785 0.000000 -0.809017
    outer loop
      vertex -23.490122 4.000000 6.569243
      vertex -22.665122 0.000000 5.969846
      vertex -23.490122 0.000000 6.569243
    endloop
  endfacet
  facet normal 0.000000 0.000000 -1.000000
    outer loop
      vertex -23.490122 4.000000 6.569243
      vertex -23.490122 0.000000 6.569243
      vertex -24.509878 4.000000 6.569243
    endloop
  endfacet
  facet normal 0.000000 0.000000 -1.000000
    outer loop
      vertex -24.509878 4.000000 6.569243
      vertex -23.490122 0.000000 6.569243
      vertex -24.509878 0.000000 6.569243
    endloop
  endfacet
  facet normal 0.587785 0.000000 -0.809017
    outer loop
      vertex -24.509878 4.000000 6.569243
      vertex -24.509878 0.000000 6.569243
      vertex -25.334878 4.000000 5.969846
    endloop
  endfacet
  facet normal 0.587785 0.000000 -0.809017
    outer loop
      vertex -25.334878 4.000000 5.969846
      vertex -24.509878 0.000000 6.569243
      vertex -25.334878 0.000000 5.969846
    endloop
  endfacet
  facet normal 0.951057 0.000000 -0.309017
    outer loop
      vertex -25.650000 4.000000 5.000000
      vertex -25.334878 4.000000 5.969846
      vertex -25.334878 0.000000 5.969846
    endloop
  endfacet
  facet normal 0.951057 -0.000000 -0.309017
    outer loop
      vertex -25.650000 0.000000 5.000000
      vertex -25.650000 4.000000 5.000000
      vertex -25.334878 0.000000 5.969846
    endloop
  endfacet
  facet normal 0.587785 0.000000 0.809017
    outer loop
      vertex -4.509878 0.000000 3.430757
      vertex -4.509878 4.000000 3.430757
      vertex -5.334878 4.000000 4.030154
    endloop
  endfacet
  facet normal 0.587785 0.000000 0.809017
    outer loop
      vertex -5.334878 0.000000 4.030154
      vertex -4.509878 0.000000 3.430757
      vertex -5.334878 4.000000 4.030154
    endloop
  endfacet
  facet normal 0.951057 0.000000 0.309017
    outer loop
      vertex -5.334878 0.000000 4.030154
      vertex -5.334878 4.000000 4.030154
      vertex -5.650000 4.000000 5.000000
    endloop
  endfacet
  facet normal 0.951057 0.000000 0.309017
    outer loop
      vertex -5.650000 0.000000 5.000000
      vertex -5.334878 0.000000 4.030154
      vertex -5.650000 4.000000 5.000000
    endloop
  endfacet
  facet normal 0.000000 0.000000 1.000000
    outer loop
      vertex -3.490122 0.000000 3.430757
      vertex -3.490122 4.000000 3.430757
      vertex -4.509878 4.000000 3.430757
    endloop
  endfacet
  facet normal 0.000000 0.000000 1.000000
    outer loop
      vertex -4.509878 0.000000 3.430757
      vertex -3.490122 0.000000 3.430757
      vertex -4.509878 4.000000 3.430757
    endloop
  endfacet
  facet normal -0.587785 0.000000 0.809017
    outer loop
      vertex -2.665122 0.000000 4.030154
      vertex -2.665122 4.000000 4.030154
      vertex -3.490122 4.000000 3.430757
    endloop
  endfacet
  facet normal -0.587785 0.000000 0.809017
    outer loop
      vertex -3.490122 0.000000 3.430757
      vertex -2.665122 0.000000 4.030154
      vertex -3.490122 4.000000 3.430757
    endloop
  endfacet
  facet normal -0.951057 0.000000 0.309017
    outer loop
      vertex -2.350000 4.000000 5.000000
      vertex -2.665122 4.000000 4.030154
      vertex -2.350000 0.000000 5.000000
    endloop
  endfacet
  facet normal -0.951057 0.000000 0.309017
    outer loop
      vertex -2.350000 0.000000 5.000000
      vertex -2.665122 4.000000 4.030154
      vertex -2.665122 0.000000 4.030154
    endloop
  endfacet
  facet normal -0.951057 -0.000000 -0.309017
    outer loop
      vertex -2.350000 4.000000 5.000000
      vertex -2.350000 0.000000 5.000000
      vertex -2.665122 4.000000 5.969846
    endloop
  endfacet
  facet normal -0.951057 0.000000 -0.309017
    outer loop
      vertex -2.665122 4.000000 5.969846
      vertex -2.350000 0.000000 5.000000
      vertex -2.665122 0.000000 5.969846
    endloop
  endfacet
  facet normal -0.587785 0.000000 -0.809017
    outer loop
      vertex -2.665122 4.000000 5.969846
      vertex -2.665122 0.000000 5.969846
      vertex -3.490122 4.000000 6.569243
    endloop
  endfacet
  facet normal -0.587785 0.000000 -0.809017
    outer loop
      vertex -3.490122 4.000000 6.569243
      vertex -2.665122 0.000000 5.969846
      vertex -3.490122 0.000000 6.569243
    endloop
  endfacet
  facet normal 0.000000 0.000000 -1.000000
    outer loop
      vertex -3.490122 4.000000 6.569243
      vertex -3.490122 0.000000 6.569243
      vertex -4.509878 4.000000 6.569243
    endloop
  endfacet
  facet normal 0.000000 0.000000 -1.000000
    outer loop
      vertex -4.509878 4.000000 6.569243
      vertex -3.490122 0.000000 6.569243
      vertex -4.509878 0.000000 6.569243
    endloop
  endfacet
  facet normal 0.587785 0.000000 -0.809017
    outer loop
      vertex -4.509878 4.000000 6.569243
      vertex -4.509878 0.000000 6.569243
      vertex -5.334878 4.000000 5.969846
    endloop
  endfacet
  facet normal 0.587785 0.000000 -0.809017
    outer loop
      vertex -5.334878 4.000000 5.969846
      vertex -4.509878 0.000000 6.569243
      vertex -5.334878 0.000000 5.969846
    endloop
  endfacet
  facet normal 0.951057 0.000000 -0.309017
    outer loop
      vertex -5.650000 4.000000 5.000000
      vertex -5.334878 4.000000 5.969846
      vertex -5.334878 0.000000 5.969846
    endloop
  endfacet
  facet normal 0.951057 -0.000000 -0.309017
    outer loop
      vertex -5.650000 0.000000 5.000000
      vertex -5.650000 4.000000 5.000000
      vertex -5.334878 0.000000 5.969846
    endloop
  endfacet
  facet normal 0.587785 0.000000 0.809017
    outer loop
      vertex 16.490122 0.000000 3.430757
      vertex 16.490122 4.050000 3.430757
      vertex 15.665122 4.050000 4.030154
    endloop
  endfacet
  facet normal 0.587785 0.000000 0.809017
    outer loop
      vertex 15.665122 0.000000 4.030154
      vertex 16.490122 0.000000 3.430757
      vertex 15.665122 4.050000 4.030154
    endloop
  endfacet
  facet normal 0.951057 0.000000 0.309017
    outer loop
      vertex 15.665122 0.000000 4.030154
      vertex 15.665122 4.050000 4.030154
      vertex 15.350000 4.050000 5.000000
    endloop
  endfacet
  facet normal 0.951057 0.000000 0.309017
    outer loop
      vertex 15.350000 0.000000 5.000000
      vertex 15.665122 0.000000 4.030154
      vertex 15.350000 4.050000 5.000000
    endloop
  endfacet
  facet normal 0.000000 0.000000 1.000000
    outer loop
      vertex 17.509878 0.000000 3.430757
      vertex 17.509878 4.050000 3.430757
      vertex 16.490122 4.050000 3.430757
    endloop
  endfacet
  facet normal 0.000000 0.000000 1.000000
    outer loop
      vertex 16.490122 0.000000 3.430757
      vertex 17.509878 0.000000 3.430757
      vertex 16.490122 4.050000 3.430757
    endloop
  endfacet
  facet normal -0.587785 0.000000 0.809017
    outer loop
      vertex 18.334878 0.000000 4.030154
      vertex 18.334878 4.050000 4.030154
      vertex 17.509878 4.050000 3.430757
    endloop
  endfacet
  facet normal -0.587785 0.000000 0.809017
    outer loop
      vertex 17.509878 0.000000 3.430757
      vertex 18.334878 0.000000 4.030154
      vertex 17.509878 4.050000 3.430757
    endloop
  endfacet
  facet normal -0.951057 0.000000 0.309017
    outer loop
      vertex 18.650000 4.050000 5.000000
      vertex 18.334878 4.050000 4.030154
      vertex 18.650000 0.000000 5.000000
    endloop
  endfacet
  facet normal -0.951057 0.000000 0.309017
    outer loop
      vertex 18.650000 0.000000 5.000000
      vertex 18.334878 4.050000 4.030154
      vertex 18.334878 0.000000 4.030154
    endloop
  endfacet
  facet normal -0.951057 -0.000000 -0.309017
    outer loop
      vertex 18.650000 4.050000 5.000000
      vertex 18.650000 0.000000 5.000000
      vertex 18.334878 4.050000 5.969846
    endloop
  endfacet
  facet normal -0.951057 0.000000 -0.309017
    outer loop
      vertex 18.334878 4.050000 5.969846
      vertex 18.650000 0.000000 5.000000
      vertex 18.334878 0.000000 5.969846
    endloop
  endfacet
  facet normal -0.587785 0.000000 -0.809017
    outer loop
      vertex 18.334878 4.050000 5.969846
      vertex 18.334878 0.000000 5.969846
      vertex 17.509878 4.050000 6.569243
    endloop
  endfacet
  facet normal -0.587785 0.000000 -0.809017
    outer loop
      vertex 17.509878 4.050000 6.569243
      vertex 18.334878 0.000000 5.969846
      vertex 17.509878 0.000000 6.569243
    endloop
  endfacet
  facet normal 0.000000 0.000000 -1.000000
    outer loop
      vertex 17.509878 4.050000 6.569243
      vertex 17.509878 0.000000 6.569243
      vertex 16.490122 4.050000 6.569243
    endloop
  endfacet
  facet normal 0.000000 0.000000 -1.000000
    outer loop
      vertex 16.490122 4.050000 6.569243
      vertex 17.509878 0.000000 6.569243
      vertex 16.490122 0.000000 6.569243
    endloop
  endfacet
  facet normal 0.587785 0.000000 -0.809017
    outer loop
      vertex 16.490122 4.050000 6.569243
      vertex 16.490122 0.000000 6.569243
      vertex 15.665122 4.050000 5.969846
    endloop
  endfacet
  facet normal 0.587785 0.000000 -0.809017
    outer loop
      vertex 15.665122 4.050000 5.969846
      vertex 16.490122 0.000000 6.569243
      vertex 15.665122 0.000000 5.969846
    endloop
  endfacet
  facet normal 0.951057 0.000000 -0.309017
    outer loop
      vertex 15.350000 4.050000 5.000000
      vertex 15.665122 4.050000 5.969846
      vertex 15.665122 0.000000 5.969846
    endloop
  endfacet
  facet normal 0.951057 -0.000000 -0.309017
    outer loop
      vertex 15.350000 0.000000 5.000000
      vertex 15.350000 4.050000 5.000000
      vertex 15.665122 0.000000 5.969846
    endloop
  endfacet
  facet normal 0.000000 1.000000 0.000000
    outer loop
      vertex 16.490122 4.050000 6.569243
      vertex 9.932274 4.050000 10.000000
      vertex 17.509878 4.050000 6.569243
    endloop
  endfacet
  facet normal 0.000000 1.000000 -0.000000
    outer loop
      vertex 16.490122 4.050000 3.430757
      vertex 22.950000 4.050000 0.000000
      vertex 9.932274 4.050000 0.000000
    endloop
  endfacet
  facet normal 0.000000 1.000000 -0.000000
    outer loop
      vertex 18.334878 4.050000 4.030154
      vertex 22.950000 4.050000 0.000000
      vertex 17.509878 4.050000 3.430757
    endloop
  endfacet
  facet normal 0.000000 1.000000 -0.000000
    outer loop
      vertex 9.932274 4.050000 10.000000
      vertex 15.665122 4.050000 4.030154
      vertex 9.932274 4.050000 0.000000
    endloop
  endfacet
  facet normal 0.000000 1.000000 -0.000000
    outer loop
      vertex 15.665122 4.050000 4.030154
      vertex 16.490122 4.050000 3.430757
      vertex 9.932274 4.050000 0.000000
    endloop
  endfacet
  facet normal 0.000000 1.000000 0.000000
    outer loop
      vertex 22.950000 4.050000 10.000000
      vertex 22.950000 4.050000 0.000000
      vertex 18.334878 4.050000 4.030154
    endloop
  endfacet
  facet normal 0.000000 1.000000 0.000000
    outer loop
      vertex 22.950000 4.050000 10.000000
      vertex 18.334878 4.050000 4.030154
      vertex 18.650000 4.050000 5.000000
    endloop
  endfacet
  facet normal 0.000000 1.000000 0.000000
    outer loop
      vertex 22.950000 4.050000 10.000000
      vertex 18.650000 4.050000 5.000000
      vertex 18.334878 4.050000 5.969846
    endloop
  endfacet
  facet normal 0.000000 1.000000 0.000000
    outer loop
      vertex 22.950000 4.050000 10.000000
      vertex 18.334878 4.050000 5.969846
      vertex 17.509878 4.050000 6.569243
    endloop
  endfacet
  facet normal 0.000000 1.000000 0.000000
    outer loop
      vertex 22.950000 4.050000 10.000000
      vertex 17.509878 4.050000 6.569243
      vertex 9.932274 4.050000 10.000000
    endloop
  endfacet
  facet normal 0.000000 1.000000 0.000000
    outer loop
      vertex 15.665122 4.050000 5.969846
      vertex 9.932274 4.050000 10.000000
      vertex 16.490122 4.050000 6.569243
    endloop
  endfacet
  facet normal 0.000000 1.000000 0.000000
    outer loop
      vertex 15.350000 4.050000 5.000000
      vertex 9.932274 4.050000 10.000000
      vertex 15.665122 4.050000 5.969846
    endloop
  endfacet
  facet normal 0.000000 1.000000 0.000000
    outer loop
      vertex 9.932274 4.050000 10.000000
      vertex 15.350000 4.050000 5.000000
      vertex 15.665122 4.050000 4.030154
    endloop
  endfacet
  facet normal 0.000000 1.000000 -0.000000
    outer loop
      vertex 17.509878 4.050000 3.430757
      vertex 22.950000 4.050000 0.000000
      vertex 16.490122 4.050000 3.430757
    endloop
  endfacet
  facet normal -0.445739 0.895163 0.000000
    outer loop
      vertex 9.932274 4.050000 10.000000
      vertex 9.932274 4.050000 0.000000
      vertex 8.605374 3.389282 10.000000
    endloop
  endfacet
  facet normal -0.445739 0.895163 0.000000
    outer loop
      vertex 8.605374 3.389282 10.000000
      vertex 9.932274 4.050000 0.000000
      vertex 8.605374 3.389282 0.000000
    endloop
  endfacet
  facet normal -0.092268 0.995734 0.000000
    outer loop
      vertex 8.605374 3.389282 10.000000
      vertex 8.605374 3.389282 0.000000
      vertex 7.060454 3.246124 10.000000
    endloop
  endfacet
  facet normal -0.092268 0.995734 0.000000
    outer loop
      vertex 7.060454 3.246124 10.000000
      vertex 8.605374 3.389282 0.000000
      vertex 7.060454 3.246124 0.000000
    endloop
  endfacet
  facet normal 0.273663 0.961826 -0.000000
    outer loop
      vertex 7.060454 3.246124 10.000000
      vertex 7.060454 3.246124 0.000000
      vertex 5.568144 3.670723 10.000000
    endloop
  endfacet
  facet normal 0.273663 0.961826 -0.000000
    outer loop
      vertex 5.568144 3.670723 10.000000
      vertex 7.060454 3.246124 0.000000
      vertex 5.568144 3.670723 0.000000
    endloop
  endfacet
  facet normal 0.602635 0.798017 -0.000000
    outer loop
      vertex 5.568144 3.670723 10.000000
      vertex 5.568144 3.670723 0.000000
      vertex 4.329989 4.605734 10.000000
    endloop
  endfacet
  facet normal 0.602635 0.798017 -0.000000
    outer loop
      vertex 4.329989 4.605734 10.000000
      vertex 5.568144 3.670723 0.000000
      vertex 4.329989 4.605734 0.000000
    endloop
  endfacet
  facet normal 0.850217 0.526432 0.000000
    outer loop
      vertex 3.513209 5.924879 10.000000
      vertex 4.329989 4.605734 10.000000
      vertex 4.329989 4.605734 0.000000
    endloop
  endfacet
  facet normal 0.850217 0.526432 0.000000
    outer loop
      vertex 3.513209 5.924879 0.000000
      vertex 3.513209 5.924879 10.000000
      vertex 4.329989 4.605734 0.000000
    endloop
  endfacet
  facet normal 0.982973 0.183750 0.000000
    outer loop
      vertex 3.228114 7.450000 10.000000
      vertex 3.513209 5.924879 10.000000
      vertex 3.513209 5.924879 0.000000
    endloop
  endfacet
  facet normal 0.982973 0.183750 0.000000
    outer loop
      vertex 3.228114 7.450000 0.000000
      vertex 3.228114 7.450000 10.000000
      vertex 3.513209 5.924879 0.000000
    endloop
  endfacet
  facet normal 0.982973 -0.183750 0.000000
    outer loop
      vertex 3.513209 8.975121 0.000000
      vertex 3.513209 8.975121 10.000000
      vertex 3.228114 7.450000 10.000000
    endloop
  endfacet
  facet normal 0.982973 -0.183750 0.000000
    outer loop
      vertex 3.228114 7.450000 0.000000
      vertex 3.513209 8.975121 0.000000
      vertex 3.228114 7.450000 10.000000
    endloop
  endfacet
  facet normal 0.850217 -0.526432 0.000000
    outer loop
      vertex 4.329989 10.294266 0.000000
      vertex 4.329989 10.294266 10.000000
      vertex 3.513209 8.975121 10.000000
    endloop
  endfacet
  facet normal 0.850217 -0.526432 0.000000
    outer loop
      vertex 3.513209 8.975121 0.000000
      vertex 4.329989 10.294266 0.000000
      vertex 3.513209 8.975121 10.000000
    endloop
  endfacet
  facet normal 0.602635 -0.798017 0.000000
    outer loop
      vertex 5.568144 11.229277 0.000000
      vertex 5.568144 11.229277 10.000000
      vertex 4.329989 10.294266 10.000000
    endloop
  endfacet
  facet normal 0.602635 -0.798017 0.000000
    outer loop
      vertex 4.329989 10.294266 0.000000
      vertex 5.568144 11.229277 0.000000
      vertex 4.329989 10.294266 10.000000
    endloop
  endfacet
  facet normal 0.273663 -0.961826 0.000000
    outer loop
      vertex 7.060454 11.653876 0.000000
      vertex 7.060454 11.653876 10.000000
      vertex 5.568144 11.229277 10.000000
    endloop
  endfacet
  facet normal 0.273663 -0.961826 0.000000
    outer loop
      vertex 5.568144 11.229277 0.000000
      vertex 7.060454 11.653876 0.000000
      vertex 5.568144 11.229277 10.000000
    endloop
  endfacet
  facet normal -0.092268 -0.995734 -0.000000
    outer loop
      vertex 8.605374 11.510718 0.000000
      vertex 8.605374 11.510718 10.000000
      vertex 7.060454 11.653876 10.000000
    endloop
  endfacet
  facet normal -0.092268 -0.995734 -0.000000
    outer loop
      vertex 7.060454 11.653876 0.000000
      vertex 8.605374 11.510718 0.000000
      vertex 7.060454 11.653876 10.000000
    endloop
  endfacet
  facet normal -0.445739 -0.895163 -0.000000
    outer loop
      vertex 9.932274 10.850000 0.000000
      vertex 9.932274 10.850000 10.000000
      vertex 8.605374 11.510718 10.000000
    endloop
  endfacet
  facet normal -0.445739 -0.895163 -0.000000
    outer loop
      vertex 8.605374 11.510718 0.000000
      vertex 9.932274 10.850000 0.000000
      vertex 8.605374 11.510718 10.000000
    endloop
  endfacet
  facet normal 0.000000 -1.000000 -0.000000
    outer loop
      vertex 16.490122 10.850000 6.569243
      vertex 22.950000 10.850000 10.000000
      vertex 9.932274 10.850000 10.000000
    endloop
  endfacet
  facet normal -0.000000 -1.000000 0.000000
    outer loop
      vertex 16.490122 10.850000 6.569243
      vertex 17.509878 10.850000 6.569243
      vertex 22.950000 10.850000 10.000000
    endloop
  endfacet
  facet normal 0.000000 -1.000000 -0.000000
    outer loop
      vertex 9.932274 10.850000 0.000000
      vertex 15.350000 10.850000 5.000000
      vertex 9.932274 10.850000 10.000000
    endloop
  endfacet
  facet normal 0.000000 -1.000000 -0.000000
    outer loop
      vertex 15.665122 10.850000 5.969846
      vertex 16.490122 10.850000 6.569243
      vertex 9.932274 10.850000 10.000000
    endloop
  endfacet
  facet normal 0.000000 -1.000000 0.000000
    outer loop
      vertex 18.334878 10.850000 5.969846
      vertex 18.650000 10.850000 5.000000
      vertex 22.950000 10.850000 0.000000
    endloop
  endfacet
  facet normal 0.000000 -1.000000 -0.000000
    outer loop
      vertex 18.334878 10.850000 5.969846
      vertex 22.950000 10.850000 10.000000
      vertex 17.509878 10.850000 6.569243
    endloop
  endfacet
  facet normal 0.000000 -1.000000 0.000000
    outer loop
      vertex 22.950000 10.850000 0.000000
      vertex 22.950000 10.850000 10.000000
      vertex 18.334878 10.850000 5.969846
    endloop
  endfacet
  facet normal 0.000000 -1.000000 0.000000
    outer loop
      vertex 22.950000 10.850000 0.000000
      vertex 18.650000 10.850000 5.000000
      vertex 18.334878 10.850000 4.030154
    endloop
  endfacet
  facet normal -0.000000 -1.000000 0.000000
    outer loop
      vertex 9.932274 10.850000 0.000000
      vertex 22.950000 10.850000 0.000000
      vertex 17.509878 10.850000 3.430757
    endloop
  endfacet
  facet normal 0.000000 -1.000000 0.000000
    outer loop
      vertex 9.932274 10.850000 0.000000
      vertex 17.509878 10.850000 3.430757
      vertex 16.490122 10.850000 3.430757
    endloop
  endfacet
  facet normal 0.000000 -1.000000 0.000000
    outer loop
      vertex 9.932274 10.850000 0.000000
      vertex 15.665122 10.850000 4.030154
      vertex 15.350000 10.850000 5.000000
    endloop
  endfacet
  facet normal 0.000000 -1.000000 0.000000
    outer loop
      vertex 9.932274 10.850000 0.000000
      vertex 16.490122 10.850000 3.430757
      vertex 15.665122 10.850000 4.030154
    endloop
  endfacet
  facet normal 0.000000 -1.000000 -0.000000
    outer loop
      vertex 15.350000 10.850000 5.000000
      vertex 15.665122 10.850000 5.969846
      vertex 9.932274 10.850000 10.000000
    endloop
  endfacet
  facet normal 0.000000 -1.000000 0.000000
    outer loop
      vertex 18.334878 10.850000 4.030154
      vertex 17.509878 10.850000 3.430757
      vertex 22.950000 10.850000 0.000000
    endloop
  endfacet
  facet normal 1.000000 0.000000 -0.000000
    outer loop
      vertex 22.950000 10.850000 10.000000
      vertex 22.950000 10.850000 0.000000
      vertex 22.950000 14.900000 0.000000
    endloop
  endfacet
  facet normal 1.000000 0.000000 0.000000
    outer loop
      vertex 22.950000 14.900000 10.000000
      vertex 22.950000 10.850000 10.000000
      vertex 22.950000 14.900000 0.000000
    endloop
  endfacet
  facet normal 0.000000 1.000000 0.000000
    outer loop
      vertex 17.509878 14.900000 6.569243
      vertex 7.450000 14.900000 10.000000
      vertex 22.950000 14.900000 10.000000
    endloop
  endfacet
  facet normal 0.000000 1.000000 0.000000
    outer loop
      vertex 7.450000 14.900000 0.000000
      vertex 7.450000 14.900000 10.000000
      vertex 15.665122 14.900000 4.030154
    endloop
  endfacet
  facet normal 0.000000 1.000000 0.000000
    outer loop
      vertex 7.450000 14.900000 0.000000
      vertex 15.665122 14.900000 4.030154
      vertex 16.490122 14.900000 3.430757
    endloop
  endfacet
  facet normal 0.000000 1.000000 0.000000
    outer loop
      vertex 7.450000 14.900000 0.000000
      vertex 16.490122 14.900000 3.430757
      vertex 22.950000 14.900000 0.000000
    endloop
  endfacet
  facet normal 0.000000 1.000000 -0.000000
    outer loop
      vertex 17.509878 14.900000 3.430757
      vertex 22.950000 14.900000 0.000000
      vertex 16.490122 14.900000 3.430757
    endloop
  endfacet
  facet normal 0.000000 1.000000 -0.000000
    outer loop
      vertex 18.334878 14.900000 4.030154
      vertex 22.950000 14.900000 0.000000
      vertex 17.509878 14.900000 3.430757
    endloop
  endfacet
  facet normal 0.000000 1.000000 0.000000
    outer loop
      vertex 17.509878 14.900000 6.569243
      vertex 22.950000 14.900000 10.000000
      vertex 18.334878 14.900000 5.969846
    endloop
  endfacet
  facet normal 0.000000 1.000000 0.000000
    outer loop
      vertex 22.950000 14.900000 0.000000
      vertex 18.334878 14.900000 4.030154
      vertex 22.950000 14.900000 10.000000
    endloop
  endfacet
  facet normal 0.000000 1.000000 0.000000
    outer loop
      vertex 18.334878 14.900000 4.030154
      vertex 18.650000 14.900000 5.000000
      vertex 22.950000 14.900000 10.000000
    endloop
  endfacet
  facet normal 0.000000 1.000000 0.000000
    outer loop
      vertex 18.650000 14.900000 5.000000
      vertex 18.334878 14.900000 5.969846
      vertex 22.950000 14.900000 10.000000
    endloop
  endfacet
  facet normal 0.000000 1.000000 0.000000
    outer loop
      vertex 16.490122 14.900000 6.569243
      vertex 7.450000 14.900000 10.000000
      vertex 17.509878 14.900000 6.569243
    endloop
  endfacet
  facet normal 0.000000 1.000000 0.000000
    outer loop
      vertex 15.665122 14.900000 5.969846
      vertex 7.450000 14.900000 10.000000
      vertex 16.490122 14.900000 6.569243
    endloop
  endfacet
  facet normal 0.000000 1.000000 0.000000
    outer loop
      vertex 15.350000 14.900000 5.000000
      vertex 7.450000 14.900000 10.000000
      vertex 15.665122 14.900000 5.969846
    endloop
  endfacet
  facet normal 0.000000 1.000000 0.000000
    outer loop
      vertex 15.665122 14.900000 4.030154
      vertex 7.450000 14.900000 10.000000
      vertex 15.350000 14.900000 5.000000
    endloop
  endfacet
  facet normal -0.156434 0.987688 0.000000
    outer loop
      vertex 5.147823 14.535371 0.000000
      vertex 5.147823 14.535371 10.000000
      vertex 7.450000 14.900000 0.000000
    endloop
  endfacet
  facet normal -0.156434 0.987688 0.000000
    outer loop
      vertex 7.450000 14.900000 0.000000
      vertex 5.147823 14.535371 10.000000
      vertex 7.450000 14.900000 10.000000
    endloop
  endfacet
  facet normal -0.453990 0.891007 0.000000
    outer loop
      vertex 3.071000 13.477177 0.000000
      vertex 3.071000 13.477177 10.000000
      vertex 5.147823 14.535371 0.000000
    endloop
  endfacet
  facet normal -0.453990 0.891007 0.000000
    outer loop
      vertex 5.147823 14.535371 0.000000
      vertex 3.071000 13.477177 10.000000
      vertex 5.147823 14.535371 10.000000
    endloop
  endfacet
  facet normal -0.707107 0.707107 0.000000
    outer loop
      vertex 1.422823 11.829000 0.000000
      vertex 1.422823 11.829000 10.000000
      vertex 3.071000 13.477177 0.000000
    endloop
  endfacet
  facet normal -0.707107 0.707107 0.000000
    outer loop
      vertex 3.071000 13.477177 0.000000
      vertex 1.422823 11.829000 10.000000
      vertex 3.071000 13.477177 10.000000
    endloop
  endfacet
  facet normal -0.891007 0.453990 0.000000
    outer loop
      vertex 0.364629 9.752177 0.000000
      vertex 0.364629 9.752177 10.000000
      vertex 1.422823 11.829000 0.000000
    endloop
  endfacet
  facet normal -0.891007 0.453990 0.000000
    outer loop
      vertex 1.422823 11.829000 0.000000
      vertex 0.364629 9.752177 10.000000
      vertex 1.422823 11.829000 10.000000
    endloop
  endfacet
  facet normal -0.987688 0.156434 0.000000
    outer loop
      vertex 0.000000 7.450000 0.000000
      vertex 0.000000 7.450000 10.000000
      vertex 0.364629 9.752177 0.000000
    endloop
  endfacet
  facet normal -0.987688 0.156434 0.000000
    outer loop
      vertex 0.364629 9.752177 0.000000
      vertex 0.000000 7.450000 10.000000
      vertex 0.364629 9.752177 10.000000
    endloop
  endfacet
  facet normal -0.987688 -0.156434 -0.000000
    outer loop
      vertex 0.000000 7.450000 0.000000
      vertex 0.364629 5.147823 0.000000
      vertex 0.000000 7.450000 10.000000
    endloop
  endfacet
  facet normal -0.987688 -0.156434 0.000000
    outer loop
      vertex 0.000000 7.450000 10.000000
      vertex 0.364629 5.147823 0.000000
      vertex 0.364629 5.147823 10.000000
    endloop
  endfacet
  facet normal -0.891007 -0.453990 -0.000000
    outer loop
      vertex 0.364629 5.147823 0.000000
      vertex 0.949474 4.000000 0.000000
      vertex 0.364629 5.147823 10.000000
    endloop
  endfacet
  facet normal -0.891007 -0.453990 0.000000
    outer loop
      vertex 0.364629 5.147823 10.000000
      vertex 0.949474 4.000000 0.000000
      vertex 0.949474 4.000000 10.000000
    endloop
  endfacet
  facet normal 0.951057 0.000000 -0.309017
    outer loop
      vertex 15.350000 14.900000 5.000000
      vertex 15.665122 14.900000 5.969846
      vertex 15.665122 10.850000 5.969846
    endloop
  endfacet
  facet normal 0.951057 0.000000 -0.309017
    outer loop
      vertex 15.350000 10.850000 5.000000
      vertex 15.350000 14.900000 5.000000
      vertex 15.665122 10.850000 5.969846
    endloop
  endfacet
  facet normal 0.951057 0.000000 0.309017
    outer loop
      vertex 15.665122 10.850000 4.030154
      vertex 15.665122 14.900000 4.030154
      vertex 15.350000 14.900000 5.000000
    endloop
  endfacet
  facet normal 0.951057 0.000000 0.309017
    outer loop
      vertex 15.350000 10.850000 5.000000
      vertex 15.665122 10.850000 4.030154
      vertex 15.350000 14.900000 5.000000
    endloop
  endfacet
  facet normal 0.587785 0.000000 0.809017
    outer loop
      vertex 16.490122 10.850000 3.430757
      vertex 16.490122 14.900000 3.430757
      vertex 15.665122 14.900000 4.030154
    endloop
  endfacet
  facet normal 0.587785 0.000000 0.809017
    outer loop
      vertex 15.665122 10.850000 4.030154
      vertex 16.490122 10.850000 3.430757
      vertex 15.665122 14.900000 4.030154
    endloop
  endfacet
  facet normal 0.000000 0.000000 1.000000
    outer loop
      vertex 17.509878 10.850000 3.430757
      vertex 17.509878 14.900000 3.430757
      vertex 16.490122 14.900000 3.430757
    endloop
  endfacet
  facet normal 0.000000 0.000000 1.000000
    outer loop
      vertex 16.490122 10.850000 3.430757
      vertex 17.509878 10.850000 3.430757
      vertex 16.490122 14.900000 3.430757
    endloop
  endfacet
  facet normal -0.587785 0.000000 0.809017
    outer loop
      vertex 18.334878 10.850000 4.030154
      vertex 18.334878 14.900000 4.030154
      vertex 17.509878 14.900000 3.430757
    endloop
  endfacet
  facet normal -0.587785 0.000000 0.809017
    outer loop
      vertex 17.509878 10.850000 3.430757
      vertex 18.334878 10.850000 4.030154
      vertex 17.509878 14.900000 3.430757
    endloop
  endfacet
  facet normal -0.951057 0.000000 0.309017
    outer loop
      vertex 18.650000 14.900000 5.000000
      vertex 18.334878 14.900000 4.030154
      vertex 18.650000 10.850000 5.000000
    endloop
  endfacet
  facet normal -0.951057 0.000000 0.309017
    outer loop
      vertex 18.650000 10.850000 5.000000
      vertex 18.334878 14.900000 4.030154
      vertex 18.334878 10.850000 4.030154
    endloop
  endfacet
  facet normal -0.951057 0.000000 -0.309017
    outer loop
      vertex 18.650000 14.900000 5.000000
      vertex 18.650000 10.850000 5.000000
      vertex 18.334878 14.900000 5.969846
    endloop
  endfacet
  facet normal -0.951057 0.000000 -0.309017
    outer loop
      vertex 18.334878 14.900000 5.969846
      vertex 18.650000 10.850000 5.000000
      vertex 18.334878 10.850000 5.969846
    endloop
  endfacet
  facet normal -0.587785 0.000000 -0.809017
    outer loop
      vertex 18.334878 14.900000 5.969846
      vertex 18.334878 10.850000 5.969846
      vertex 17.509878 14.900000 6.569243
    endloop
  endfacet
  facet normal -0.587785 -0.000000 -0.809017
    outer loop
      vertex 17.509878 14.900000 6.569243
      vertex 18.334878 10.850000 5.969846
      vertex 17.509878 10.850000 6.569243
    endloop
  endfacet
  facet normal 0.000000 -0.000000 -1.000000
    outer loop
      vertex 17.509878 14.900000 6.569243
      vertex 17.509878 10.850000 6.569243
      vertex 16.490122 14.900000 6.569243
    endloop
  endfacet
  facet normal 0.000000 -0.000000 -1.000000
    outer loop
      vertex 16.490122 14.900000 6.569243
      vertex 17.509878 10.850000 6.569243
      vertex 16.490122 10.850000 6.569243
    endloop
  endfacet
  facet normal 0.587785 -0.000000 -0.809017
    outer loop
      vertex 16.490122 14.900000 6.569243
      vertex 16.490122 10.850000 6.569243
      vertex 15.665122 14.900000 5.969846
    endloop
  endfacet
  facet normal 0.587785 0.000000 -0.809017
    outer loop
      vertex 15.665122 14.900000 5.969846
      vertex 16.490122 10.850000 6.569243
      vertex 15.665122 10.850000 5.969846
    endloop
  endfacet
endsolid OpenSCAD_Model
