solid OpenSCAD_Model
  facet normal 0.866045 0.499966 0.000000
    outer loop
      vertex 52.014000 88.570000 0.000000
      vertex 52.014000 88.570000 13.200000
      vertex 58.000000 78.201000 13.200000
    endloop
  endfacet
  facet normal 0.866045 0.499966 0.000000
    outer loop
      vertex 58.000000 78.201000 0.000000
      vertex 52.014000 88.570000 0.000000
      vertex 58.000000 78.201000 13.200000
    endloop
  endfacet
  facet normal 0.000000 -0.000000 -1.000000
    outer loop
      vertex 28.538682 77.699996 0.000000
      vertex 19.890000 80.413000 0.000000
      vertex 39.723000 91.863000 0.000000
    endloop
  endfacet
  facet normal 0.000000 -0.000000 -1.000000
    outer loop
      vertex 43.810728 82.088272 0.000000
      vertex 39.723000 91.863000 0.000000
      vertex 52.014000 88.570000 0.000000
    endloop
  endfacet
  facet normal -0.000000 0.000000 -1.000000
    outer loop
      vertex 51.478928 78.912000 0.000000
      vertex 52.014000 88.570000 0.000000
      vertex 58.000000 78.201000 0.000000
    endloop
  endfacet
  facet normal 0.000000 0.000000 -1.000000
    outer loop
      vertex 37.261000 56.097000 0.000000
      vertex 58.000000 78.201000 0.000000
      vertex 54.595000 66.104000 0.000000
    endloop
  endfacet
  facet normal 0.000000 0.000000 -1.000000
    outer loop
      vertex 20.500000 19.000000 0.000000
      vertex 25.500000 6.000000 0.000000
      vertex 27.000000 2.000000 0.000000
    endloop
  endfacet
  facet normal 0.000000 0.000000 -1.000000
    outer loop
      vertex 20.500000 19.000000 0.000000
      vertex 27.000000 2.000000 0.000000
      vertex 20.500000 6.000000 0.000000
    endloop
  endfacet
  facet normal -0.000000 0.000000 -1.000000
    outer loop
      vertex 27.880600 45.137972 0.000000
      vertex 32.801000 48.471000 0.000000
      vertex 32.801000 28.180000 0.000000
    endloop
  endfacet
  facet normal -0.000000 0.000000 -1.000000
    outer loop
      vertex 20.902272 25.072728 0.000000
      vertex 32.801000 28.180000 0.000000
      vertex 25.500000 20.879000 0.000000
    endloop
  endfacet
  facet normal -0.000000 0.000000 -1.000000
    outer loop
      vertex 20.500000 19.000000 0.000000
      vertex 25.500000 20.879000 0.000000
      vertex 25.500000 6.000000 0.000000
    endloop
  endfacet
  facet normal 0.000000 0.000000 -1.000000
    outer loop
      vertex 25.500000 6.000000 0.000000
      vertex 27.000000 6.000000 0.000000
      vertex 27.000000 2.000000 0.000000
    endloop
  endfacet
  facet normal 0.000000 0.000000 -1.000000
    outer loop
      vertex 9.000000 6.000000 0.000000
      vertex 27.000000 2.000000 0.000000
      vertex 9.000000 2.000000 0.000000
    endloop
  endfacet
  facet normal 0.000000 0.000000 -1.000000
    outer loop
      vertex 10.500000 6.000000 0.000000
      vertex 27.000000 2.000000 0.000000
      vertex 9.000000 6.000000 0.000000
    endloop
  endfacet
  facet normal 0.000000 0.000000 -1.000000
    outer loop
      vertex 15.500000 6.000000 0.000000
      vertex 27.000000 2.000000 0.000000
      vertex 10.500000 6.000000 0.000000
    endloop
  endfacet
  facet normal 0.000000 0.000000 -1.000000
    outer loop
      vertex 14.549728 25.072728 0.000000
      vertex 2.649000 28.050000 0.000000
      vertex 13.234072 28.249000 0.000000
    endloop
  endfacet
  facet normal 0.000000 0.000000 -1.000000
    outer loop
      vertex 51.478928 78.912000 0.000000
      vertex 58.000000 78.201000 0.000000
      vertex 50.163272 75.735728 0.000000
    endloop
  endfacet
  facet normal 0.000000 0.000000 -1.000000
    outer loop
      vertex 37.461842 62.244629 0.000000
      vertex 46.987000 74.420072 0.000000
      vertex 58.000000 78.201000 0.000000
    endloop
  endfacet
  facet normal 0.000000 0.000000 -1.000000
    outer loop
      vertex 46.987000 74.420072 0.000000
      vertex 50.163272 75.735728 0.000000
      vertex 58.000000 78.201000 0.000000
    endloop
  endfacet
  facet normal -0.000000 0.000000 -1.000000
    outer loop
      vertex 50.163272 82.088272 0.000000
      vertex 52.014000 88.570000 0.000000
      vertex 51.478928 78.912000 0.000000
    endloop
  endfacet
  facet normal -0.000000 0.000000 -1.000000
    outer loop
      vertex 46.987000 83.403928 0.000000
      vertex 52.014000 88.570000 0.000000
      vertex 50.163272 82.088272 0.000000
    endloop
  endfacet
  facet normal 0.000000 -0.000000 -1.000000
    outer loop
      vertex 42.495072 78.912000 0.000000
      vertex 39.723000 91.863000 0.000000
      vertex 43.810728 82.088272 0.000000
    endloop
  endfacet
  facet normal 0.000000 0.000000 -1.000000
    outer loop
      vertex 9.789400 45.137972 0.000000
      vertex 2.649000 28.050000 0.000000
      vertex 9.789400 54.930600 0.000000
    endloop
  endfacet
  facet normal 0.000000 0.000000 -1.000000
    outer loop
      vertex 27.880600 45.137972 0.000000
      vertex 2.649000 28.050000 0.000000
      vertex 9.789400 45.137972 0.000000
    endloop
  endfacet
  facet normal -0.000000 0.000000 -1.000000
    outer loop
      vertex 27.880600 53.682600 0.000000
      vertex 37.261000 56.097000 0.000000
      vertex 32.801000 48.471000 0.000000
    endloop
  endfacet
  facet normal -0.000000 0.000000 -1.000000
    outer loop
      vertex 22.217928 28.249000 0.000000
      vertex 27.880600 45.137972 0.000000
      vertex 32.801000 28.180000 0.000000
    endloop
  endfacet
  facet normal 0.000000 0.000000 -1.000000
    outer loop
      vertex 28.538682 77.699996 0.000000
      vertex 46.987000 74.420072 0.000000
      vertex 37.461842 62.244629 0.000000
    endloop
  endfacet
  facet normal 0.000000 0.000000 -1.000000
    outer loop
      vertex 28.538682 77.699996 0.000000
      vertex 39.723000 91.863000 0.000000
      vertex 42.495072 78.912000 0.000000
    endloop
  endfacet
  facet normal 0.000000 0.000000 -1.000000
    outer loop
      vertex 27.880600 53.682600 0.000000
      vertex 37.461842 62.244629 0.000000
      vertex 58.000000 78.201000 0.000000
    endloop
  endfacet
  facet normal 0.000000 -0.000000 -1.000000
    outer loop
      vertex 20.134000 72.847800 0.000000
      vertex 19.890000 80.413000 0.000000
      vertex 28.538682 77.699996 0.000000
    endloop
  endfacet
  facet normal 0.000000 0.000000 -1.000000
    outer loop
      vertex 9.789400 54.930600 0.000000
      vertex 19.890000 80.413000 0.000000
      vertex 20.134000 72.847800 0.000000
    endloop
  endfacet
  facet normal 0.000000 0.000000 -1.000000
    outer loop
      vertex 2.649000 50.551000 0.000000
      vertex 19.890000 80.413000 0.000000
      vertex 9.789400 54.930600 0.000000
    endloop
  endfacet
  facet normal -0.000000 0.000000 -1.000000
    outer loop
      vertex 2.649000 50.551000 0.000000
      vertex 9.789400 54.930600 0.000000
      vertex 2.649000 28.050000 0.000000
    endloop
  endfacet
  facet normal -0.000000 -0.000000 -1.000000
    outer loop
      vertex 10.500000 20.199000 0.000000
      vertex 2.649000 28.050000 0.000000
      vertex 15.500000 19.000000 0.000000
    endloop
  endfacet
  facet normal 0.000000 0.000000 -1.000000
    outer loop
      vertex 20.902272 25.072728 0.000000
      vertex 25.500000 20.879000 0.000000
      vertex 17.726000 23.757072 0.000000
    endloop
  endfacet
  facet normal 0.000000 0.000000 -1.000000
    outer loop
      vertex 2.649000 28.050000 0.000000
      vertex 14.549728 25.072728 0.000000
      vertex 17.726000 23.757072 0.000000
    endloop
  endfacet
  facet normal 0.000000 0.000000 -1.000000
    outer loop
      vertex 2.649000 28.050000 0.000000
      vertex 17.726000 23.757072 0.000000
      vertex 25.500000 20.879000 0.000000
    endloop
  endfacet
  facet normal 0.000000 0.000000 -1.000000
    outer loop
      vertex 22.217928 28.249000 0.000000
      vertex 32.801000 28.180000 0.000000
      vertex 20.902272 25.072728 0.000000
    endloop
  endfacet
  facet normal -0.000000 0.000000 -1.000000
    outer loop
      vertex 20.902272 31.425272 0.000000
      vertex 27.880600 45.137972 0.000000
      vertex 22.217928 28.249000 0.000000
    endloop
  endfacet
  facet normal 0.000000 0.000000 -1.000000
    outer loop
      vertex 14.549728 31.425272 0.000000
      vertex 27.880600 45.137972 0.000000
      vertex 17.726000 32.740928 0.000000
    endloop
  endfacet
  facet normal -0.000000 0.000000 -1.000000
    outer loop
      vertex 17.726000 32.740928 0.000000
      vertex 27.880600 45.137972 0.000000
      vertex 20.902272 31.425272 0.000000
    endloop
  endfacet
  facet normal 0.000000 0.000000 -1.000000
    outer loop
      vertex 15.500000 6.000000 0.000000
      vertex 10.500000 20.199000 0.000000
      vertex 15.500000 19.000000 0.000000
    endloop
  endfacet
  facet normal 0.000000 0.000000 -1.000000
    outer loop
      vertex 2.649000 28.050000 0.000000
      vertex 27.880600 45.137972 0.000000
      vertex 14.549728 31.425272 0.000000
    endloop
  endfacet
  facet normal 0.000000 0.000000 -1.000000
    outer loop
      vertex 2.649000 28.050000 0.000000
      vertex 14.549728 31.425272 0.000000
      vertex 13.234072 28.249000 0.000000
    endloop
  endfacet
  facet normal 0.000000 0.000000 -1.000000
    outer loop
      vertex 20.500000 6.000000 0.000000
      vertex 27.000000 2.000000 0.000000
      vertex 15.500000 6.000000 0.000000
    endloop
  endfacet
  facet normal 0.000000 0.000000 -1.000000
    outer loop
      vertex 43.810728 82.088272 0.000000
      vertex 52.014000 88.570000 0.000000
      vertex 46.987000 83.403928 0.000000
    endloop
  endfacet
  facet normal 0.000000 0.000000 -1.000000
    outer loop
      vertex 2.649000 28.050000 0.000000
      vertex 25.500000 20.879000 0.000000
      vertex 20.500000 19.000000 0.000000
    endloop
  endfacet
  facet normal 0.000000 0.000000 -1.000000
    outer loop
      vertex 2.649000 28.050000 0.000000
      vertex 20.500000 19.000000 0.000000
      vertex 15.500000 19.000000 0.000000
    endloop
  endfacet
  facet normal 0.000000 0.000000 -1.000000
    outer loop
      vertex 27.880600 53.682600 0.000000
      vertex 32.801000 48.471000 0.000000
      vertex 27.880600 45.137972 0.000000
    endloop
  endfacet
  facet normal 0.000000 0.000000 -1.000000
    outer loop
      vertex 10.500000 20.199000 0.000000
      vertex 15.500000 6.000000 0.000000
      vertex 10.500000 6.000000 0.000000
    endloop
  endfacet
  facet normal -0.000000 0.000000 -1.000000
    outer loop
      vertex 28.538682 77.699996 0.000000
      vertex 42.495072 78.912000 0.000000
      vertex 43.810728 75.735728 0.000000
    endloop
  endfacet
  facet normal 0.000000 0.000000 -1.000000
    outer loop
      vertex 27.880600 53.682600 0.000000
      vertex 58.000000 78.201000 0.000000
      vertex 37.261000 56.097000 0.000000
    endloop
  endfacet
  facet normal 0.000000 0.000000 -1.000000
    outer loop
      vertex 37.461842 62.244629 0.000000
      vertex 27.880600 53.682600 0.000000
      vertex 30.556600 58.258200 0.000000
    endloop
  endfacet
  facet normal 0.000000 0.000000 -1.000000
    outer loop
      vertex 28.538682 77.699996 0.000000
      vertex 43.810728 75.735728 0.000000
      vertex 46.987000 74.420072 0.000000
    endloop
  endfacet
  facet normal 0.962595 -0.270946 0.000000
    outer loop
      vertex 54.595000 66.104000 0.000000
      vertex 58.000000 78.201000 0.000000
      vertex 58.000000 78.201000 13.200000
    endloop
  endfacet
  facet normal 0.962595 -0.270946 0.000000
    outer loop
      vertex 54.595000 66.104000 13.200000
      vertex 54.595000 66.104000 0.000000
      vertex 58.000000 78.201000 13.200000
    endloop
  endfacet
  facet normal 0.258792 0.965933 -0.000000
    outer loop
      vertex 39.723000 91.863000 13.200000
      vertex 52.014000 88.570000 13.200000
      vertex 39.723000 91.863000 0.000000
    endloop
  endfacet
  facet normal 0.258792 0.965933 0.000000
    outer loop
      vertex 39.723000 91.863000 0.000000
      vertex 52.014000 88.570000 13.200000
      vertex 52.014000 88.570000 0.000000
    endloop
  endfacet
  facet normal -0.000000 0.000000 1.000000
    outer loop
      vertex 15.500000 6.000000 13.200000
      vertex 10.500000 20.199000 13.200000
      vertex 10.500000 6.000000 13.200000
    endloop
  endfacet
  facet normal 0.000000 0.000000 1.000000
    outer loop
      vertex 14.549728 31.425272 13.200000
      vertex 17.726000 32.740928 13.200000
      vertex 27.880600 45.137973 13.200000
    endloop
  endfacet
  facet normal 0.000000 -0.000000 1.000000
    outer loop
      vertex 9.000000 6.000000 13.200000
      vertex 9.000000 2.000000 13.200000
      vertex 10.500000 6.000000 13.200000
    endloop
  endfacet
  facet normal 0.000000 -0.000000 1.000000
    outer loop
      vertex 27.880600 53.682600 13.200000
      vertex 27.880600 45.137973 13.200000
      vertex 32.801000 48.471000 13.200000
    endloop
  endfacet
  facet normal 0.000000 0.000000 1.000000
    outer loop
      vertex 9.000000 2.000000 13.200000
      vertex 27.000000 2.000000 13.200000
      vertex 10.500000 6.000000 13.200000
    endloop
  endfacet
  facet normal 0.000000 -0.000000 1.000000
    outer loop
      vertex 20.500000 19.000000 13.200000
      vertex 20.500000 6.000000 13.200000
      vertex 27.000000 2.000000 13.200000
    endloop
  endfacet
  facet normal 0.000000 0.000000 1.000000
    outer loop
      vertex 27.000000 2.000000 13.200000
      vertex 27.000000 6.000000 13.200000
      vertex 25.500000 6.000000 13.200000
    endloop
  endfacet
  facet normal 0.000000 0.000000 1.000000
    outer loop
      vertex 15.500000 19.000000 13.200000
      vertex 25.500000 20.879000 13.200000
      vertex 2.649000 28.050000 13.200000
    endloop
  endfacet
  facet normal -0.000000 0.000000 1.000000
    outer loop
      vertex 54.595000 66.104000 13.200000
      vertex 58.000000 78.201000 13.200000
      vertex 37.261000 56.097000 13.200000
    endloop
  endfacet
  facet normal 0.000000 0.000000 1.000000
    outer loop
      vertex 27.880600 53.682600 13.200000
      vertex 32.801000 48.471000 13.200000
      vertex 37.261000 56.097000 13.200000
    endloop
  endfacet
  facet normal -0.000000 0.000000 1.000000
    outer loop
      vertex 9.789400 45.137973 13.200000
      vertex 9.789400 54.930600 13.200000
      vertex 2.649000 28.050000 13.200000
    endloop
  endfacet
  facet normal 0.000000 0.000000 1.000000
    outer loop
      vertex 9.789400 54.930600 13.200000
      vertex 20.134000 72.847800 13.200000
      vertex 19.890000 80.413000 13.200000
    endloop
  endfacet
  facet normal 0.000000 0.000000 1.000000
    outer loop
      vertex 9.789400 54.930600 13.200000
      vertex 2.649000 50.551000 13.200000
      vertex 2.649000 28.050000 13.200000
    endloop
  endfacet
  facet normal -0.000000 0.000000 1.000000
    outer loop
      vertex 43.810728 82.088272 13.200000
      vertex 39.723000 91.863000 13.200000
      vertex 42.495072 78.912000 13.200000
    endloop
  endfacet
  facet normal 0.000000 0.000000 1.000000
    outer loop
      vertex 46.987000 83.403928 13.200000
      vertex 50.163272 82.088272 13.200000
      vertex 52.014000 88.570000 13.200000
    endloop
  endfacet
  facet normal -0.000000 0.000000 1.000000
    outer loop
      vertex 52.014000 88.570000 13.200000
      vertex 39.723000 91.863000 13.200000
      vertex 43.810728 82.088272 13.200000
    endloop
  endfacet
  facet normal 0.000000 0.000000 1.000000
    outer loop
      vertex 43.810728 82.088272 13.200000
      vertex 46.987000 83.403928 13.200000
      vertex 52.014000 88.570000 13.200000
    endloop
  endfacet
  facet normal 0.000000 0.000000 1.000000
    outer loop
      vertex 58.000000 78.201000 13.200000
      vertex 52.014000 88.570000 13.200000
      vertex 50.163272 82.088272 13.200000
    endloop
  endfacet
  facet normal 0.000000 0.000000 1.000000
    outer loop
      vertex 28.538682 77.699997 13.200000
      vertex 42.495072 78.912000 13.200000
      vertex 39.723000 91.863000 13.200000
    endloop
  endfacet
  facet normal 0.000000 0.000000 1.000000
    outer loop
      vertex 58.000000 78.201000 13.200000
      vertex 50.163272 82.088272 13.200000
      vertex 51.478928 78.912000 13.200000
    endloop
  endfacet
  facet normal 0.000000 0.000000 1.000000
    outer loop
      vertex 28.538682 77.699997 13.200000
      vertex 37.461843 62.244629 13.200000
      vertex 46.987000 74.420072 13.200000
    endloop
  endfacet
  facet normal -0.000000 0.000000 1.000000
    outer loop
      vertex 58.000000 78.201000 13.200000
      vertex 51.478928 78.912000 13.200000
      vertex 50.163272 75.735728 13.200000
    endloop
  endfacet
  facet normal 0.000000 0.000000 1.000000
    outer loop
      vertex 37.461843 62.244629 13.200000
      vertex 30.556600 58.258200 13.200000
      vertex 27.880600 53.682600 13.200000
    endloop
  endfacet
  facet normal 0.000000 0.000000 1.000000
    outer loop
      vertex 19.890000 80.413000 13.200000
      vertex 2.649000 50.551000 13.200000
      vertex 9.789400 54.930600 13.200000
    endloop
  endfacet
  facet normal 0.000000 0.000000 1.000000
    outer loop
      vertex 39.723000 91.863000 13.200000
      vertex 19.890000 80.413000 13.200000
      vertex 20.134000 72.847800 13.200000
    endloop
  endfacet
  facet normal 0.000000 0.000000 1.000000
    outer loop
      vertex 39.723000 91.863000 13.200000
      vertex 20.134000 72.847800 13.200000
      vertex 28.538682 77.699997 13.200000
    endloop
  endfacet
  facet normal 0.000000 0.000000 1.000000
    outer loop
      vertex 58.000000 78.201000 13.200000
      vertex 50.163272 75.735728 13.200000
      vertex 37.461843 62.244629 13.200000
    endloop
  endfacet
  facet normal 0.000000 0.000000 1.000000
    outer loop
      vertex 28.538682 77.699997 13.200000
      vertex 43.810728 75.735728 13.200000
      vertex 42.495072 78.912000 13.200000
    endloop
  endfacet
  facet normal 0.000000 0.000000 1.000000
    outer loop
      vertex 15.500000 6.000000 13.200000
      vertex 15.500000 19.000000 13.200000
      vertex 10.500000 20.199000 13.200000
    endloop
  endfacet
  facet normal 0.000000 -0.000000 1.000000
    outer loop
      vertex 46.987000 74.420072 13.200000
      vertex 37.461843 62.244629 13.200000
      vertex 50.163272 75.735728 13.200000
    endloop
  endfacet
  facet normal 0.000000 0.000000 1.000000
    outer loop
      vertex 10.500000 20.199000 13.200000
      vertex 15.500000 19.000000 13.200000
      vertex 2.649000 28.050000 13.200000
    endloop
  endfacet
  facet normal -0.000000 0.000000 1.000000
    outer loop
      vertex 14.549728 31.425272 13.200000
      vertex 27.880600 45.137973 13.200000
      vertex 2.649000 28.050000 13.200000
    endloop
  endfacet
  facet normal 0.000000 0.000000 1.000000
    outer loop
      vertex 32.801000 28.180000 13.200000
      vertex 32.801000 48.471000 13.200000
      vertex 27.880600 45.137973 13.200000
    endloop
  endfacet
  facet normal -0.000000 0.000000 1.000000
    outer loop
      vertex 13.234072 28.249000 13.200000
      vertex 14.549728 31.425272 13.200000
      vertex 2.649000 28.050000 13.200000
    endloop
  endfacet
  facet normal 0.000000 -0.000000 1.000000
    outer loop
      vertex 22.217928 28.249000 13.200000
      vertex 20.902272 25.072728 13.200000
      vertex 32.801000 28.180000 13.200000
    endloop
  endfacet
  facet normal 0.000000 0.000000 1.000000
    outer loop
      vertex 32.801000 28.180000 13.200000
      vertex 27.880600 45.137973 13.200000
      vertex 17.726000 32.740928 13.200000
    endloop
  endfacet
  facet normal 0.000000 0.000000 1.000000
    outer loop
      vertex 32.801000 28.180000 13.200000
      vertex 17.726000 32.740928 13.200000
      vertex 20.902272 31.425272 13.200000
    endloop
  endfacet
  facet normal 0.000000 0.000000 1.000000
    outer loop
      vertex 32.801000 28.180000 13.200000
      vertex 20.902272 31.425272 13.200000
      vertex 22.217928 28.249000 13.200000
    endloop
  endfacet
  facet normal 0.000000 0.000000 1.000000
    outer loop
      vertex 25.500000 20.879000 13.200000
      vertex 32.801000 28.180000 13.200000
      vertex 20.902272 25.072728 13.200000
    endloop
  endfacet
  facet normal 0.000000 0.000000 1.000000
    outer loop
      vertex 25.500000 20.879000 13.200000
      vertex 17.726000 23.757072 13.200000
      vertex 2.649000 28.050000 13.200000
    endloop
  endfacet
  facet normal 0.000000 0.000000 1.000000
    outer loop
      vertex 25.500000 20.879000 13.200000
      vertex 20.902272 25.072728 13.200000
      vertex 17.726000 23.757072 13.200000
    endloop
  endfacet
  facet normal 0.000000 0.000000 1.000000
    outer loop
      vertex 17.726000 23.757072 13.200000
      vertex 14.549728 25.072728 13.200000
      vertex 2.649000 28.050000 13.200000
    endloop
  endfacet
  facet normal 0.000000 0.000000 1.000000
    outer loop
      vertex 27.000000 2.000000 13.200000
      vertex 15.500000 6.000000 13.200000
      vertex 10.500000 6.000000 13.200000
    endloop
  endfacet
  facet normal -0.000000 0.000000 1.000000
    outer loop
      vertex 20.500000 19.000000 13.200000
      vertex 25.500000 20.879000 13.200000
      vertex 15.500000 19.000000 13.200000
    endloop
  endfacet
  facet normal 0.000000 0.000000 1.000000
    outer loop
      vertex 28.538682 77.699997 13.200000
      vertex 46.987000 74.420072 13.200000
      vertex 43.810728 75.735728 13.200000
    endloop
  endfacet
  facet normal 0.000000 0.000000 1.000000
    outer loop
      vertex 27.000000 2.000000 13.200000
      vertex 20.500000 6.000000 13.200000
      vertex 15.500000 6.000000 13.200000
    endloop
  endfacet
  facet normal 0.000000 0.000000 1.000000
    outer loop
      vertex 20.500000 19.000000 13.200000
      vertex 27.000000 2.000000 13.200000
      vertex 25.500000 6.000000 13.200000
    endloop
  endfacet
  facet normal 0.000000 0.000000 1.000000
    outer loop
      vertex 25.500000 6.000000 13.200000
      vertex 25.500000 20.879000 13.200000
      vertex 20.500000 19.000000 13.200000
    endloop
  endfacet
  facet normal 0.000000 0.000000 1.000000
    outer loop
      vertex 27.880600 53.682600 13.200000
      vertex 58.000000 78.201000 13.200000
      vertex 37.461843 62.244629 13.200000
    endloop
  endfacet
  facet normal 0.000000 0.000000 1.000000
    outer loop
      vertex 27.880600 53.682600 13.200000
      vertex 37.261000 56.097000 13.200000
      vertex 58.000000 78.201000 13.200000
    endloop
  endfacet
  facet normal 0.000000 0.000000 1.000000
    outer loop
      vertex 14.549728 25.072728 13.200000
      vertex 13.234072 28.249000 13.200000
      vertex 2.649000 28.050000 13.200000
    endloop
  endfacet
  facet normal 0.000000 0.000000 1.000000
    outer loop
      vertex 27.880600 45.137973 13.200000
      vertex 9.789400 45.137973 13.200000
      vertex 2.649000 28.050000 13.200000
    endloop
  endfacet
  facet normal -0.707107 -0.707107 0.000000
    outer loop
      vertex 2.649000 28.050000 0.000000
      vertex 10.500000 20.199000 0.000000
      vertex 10.500000 20.199000 13.200000
    endloop
  endfacet
  facet normal -0.707107 -0.707107 0.000000
    outer loop
      vertex 2.649000 28.050000 13.200000
      vertex 2.649000 28.050000 0.000000
      vertex 10.500000 20.199000 13.200000
    endloop
  endfacet
  facet normal -1.000000 -0.000000 0.000000
    outer loop
      vertex 2.649000 44.150000 4.881014
      vertex 2.649000 50.551000 13.200000
      vertex 2.649000 50.551000 0.000000
    endloop
  endfacet
  facet normal -1.000000 0.000000 0.000000
    outer loop
      vertex 2.649000 28.050000 13.200000
      vertex 2.649000 35.850000 8.318986
      vertex 2.649000 28.050000 0.000000
    endloop
  endfacet
  facet normal -1.000000 0.000000 0.000000
    outer loop
      vertex 2.649000 35.850000 8.318986
      vertex 2.649000 35.850001 4.881014
      vertex 2.649000 28.050000 0.000000
    endloop
  endfacet
  facet normal -1.000000 -0.000000 0.000000
    outer loop
      vertex 2.649000 41.718986 10.750000
      vertex 2.649000 50.551000 13.200000
      vertex 2.649000 44.149999 8.318986
    endloop
  endfacet
  facet normal -1.000000 -0.000000 0.000000
    outer loop
      vertex 2.649000 28.050000 0.000000
      vertex 2.649000 38.281014 2.450000
      vertex 2.649000 50.551000 0.000000
    endloop
  endfacet
  facet normal -1.000000 -0.000000 0.000000
    outer loop
      vertex 2.649000 38.281014 2.450000
      vertex 2.649000 41.718986 2.450001
      vertex 2.649000 50.551000 0.000000
    endloop
  endfacet
  facet normal -1.000000 -0.000000 0.000000
    outer loop
      vertex 2.649000 41.718986 2.450001
      vertex 2.649000 44.150000 4.881014
      vertex 2.649000 50.551000 0.000000
    endloop
  endfacet
  facet normal -1.000000 -0.000000 0.000000
    outer loop
      vertex 2.649000 44.149999 8.318986
      vertex 2.649000 50.551000 13.200000
      vertex 2.649000 44.150000 4.881014
    endloop
  endfacet
  facet normal -1.000000 0.000000 0.000000
    outer loop
      vertex 2.649000 28.050000 13.200000
      vertex 2.649000 50.551000 13.200000
      vertex 2.649000 41.718986 10.750000
    endloop
  endfacet
  facet normal -1.000000 0.000000 0.000000
    outer loop
      vertex 2.649000 28.050000 13.200000
      vertex 2.649000 41.718986 10.750000
      vertex 2.649000 38.281014 10.749999
    endloop
  endfacet
  facet normal -1.000000 0.000000 0.000000
    outer loop
      vertex 2.649000 28.050000 13.200000
      vertex 2.649000 38.281014 10.749999
      vertex 2.649000 35.850000 8.318986
    endloop
  endfacet
  facet normal -1.000000 0.000000 0.000000
    outer loop
      vertex 2.649000 38.281014 2.450000
      vertex 2.649000 28.050000 0.000000
      vertex 2.649000 35.850001 4.881014
    endloop
  endfacet
  facet normal -1.000000 0.000000 0.000000
    outer loop
      vertex 10.500000 6.000000 13.200000
      vertex 10.500000 20.199000 13.200000
      vertex 10.500000 6.000000 0.000000
    endloop
  endfacet
  facet normal -1.000000 -0.000000 0.000000
    outer loop
      vertex 10.500000 6.000000 0.000000
      vertex 10.500000 20.199000 13.200000
      vertex 10.500000 20.199000 0.000000
    endloop
  endfacet
  facet normal 0.000000 1.000000 -0.000000
    outer loop
      vertex 9.000000 6.000000 13.200000
      vertex 10.500000 6.000000 13.200000
      vertex 9.000000 6.000000 0.000000
    endloop
  endfacet
  facet normal 0.000000 1.000000 0.000000
    outer loop
      vertex 9.000000 6.000000 0.000000
      vertex 10.500000 6.000000 13.200000
      vertex 10.500000 6.000000 0.000000
    endloop
  endfacet
  facet normal -1.000000 0.000000 0.000000
    outer loop
      vertex 9.000000 2.000000 13.200000
      vertex 9.000000 6.000000 13.200000
      vertex 9.000000 2.000000 0.000000
    endloop
  endfacet
  facet normal -1.000000 -0.000000 0.000000
    outer loop
      vertex 9.000000 2.000000 0.000000
      vertex 9.000000 6.000000 13.200000
      vertex 9.000000 6.000000 0.000000
    endloop
  endfacet
  facet normal -0.000000 -1.000000 0.000000
    outer loop
      vertex 9.000000 2.000000 0.000000
      vertex 27.000000 2.000000 0.000000
      vertex 27.000000 2.000000 13.200000
    endloop
  endfacet
  facet normal 0.000000 -1.000000 0.000000
    outer loop
      vertex 9.000000 2.000000 13.200000
      vertex 9.000000 2.000000 0.000000
      vertex 27.000000 2.000000 13.200000
    endloop
  endfacet
  facet normal 1.000000 0.000000 0.000000
    outer loop
      vertex 27.000000 2.000000 0.000000
      vertex 27.000000 6.000000 0.000000
      vertex 27.000000 6.000000 13.200000
    endloop
  endfacet
  facet normal 1.000000 0.000000 -0.000000
    outer loop
      vertex 27.000000 2.000000 13.200000
      vertex 27.000000 2.000000 0.000000
      vertex 27.000000 6.000000 13.200000
    endloop
  endfacet
  facet normal 0.000000 1.000000 -0.000000
    outer loop
      vertex 25.500000 6.000000 13.200000
      vertex 27.000000 6.000000 13.200000
      vertex 25.500000 6.000000 0.000000
    endloop
  endfacet
  facet normal 0.000000 1.000000 0.000000
    outer loop
      vertex 25.500000 6.000000 0.000000
      vertex 27.000000 6.000000 13.200000
      vertex 27.000000 6.000000 0.000000
    endloop
  endfacet
  facet normal 1.000000 0.000000 0.000000
    outer loop
      vertex 25.500000 6.000000 0.000000
      vertex 25.500000 20.879000 0.000000
      vertex 25.500000 20.879000 13.200000
    endloop
  endfacet
  facet normal 1.000000 0.000000 -0.000000
    outer loop
      vertex 25.500000 6.000000 13.200000
      vertex 25.500000 6.000000 0.000000
      vertex 25.500000 20.879000 13.200000
    endloop
  endfacet
  facet normal 0.707107 -0.707107 0.000000
    outer loop
      vertex 25.500000 20.879000 0.000000
      vertex 32.801000 28.180000 0.000000
      vertex 32.801000 28.180000 13.200000
    endloop
  endfacet
  facet normal 0.707107 -0.707107 0.000000
    outer loop
      vertex 25.500000 20.879000 13.200000
      vertex 25.500000 20.879000 0.000000
      vertex 32.801000 28.180000 13.200000
    endloop
  endfacet
  facet normal 1.000000 0.000000 0.000000
    outer loop
      vertex 32.801000 44.149999 8.318986
      vertex 32.801000 48.471000 0.000000
      vertex 32.801000 48.471000 13.200000
    endloop
  endfacet
  facet normal 1.000000 -0.000000 0.000000
    outer loop
      vertex 32.801000 38.281014 2.450000
      vertex 32.801000 35.850001 4.881014
      vertex 32.801000 28.180000 0.000000
    endloop
  endfacet
  facet normal 1.000000 0.000000 -0.000000
    outer loop
      vertex 32.801000 28.180000 13.200000
      vertex 32.801000 28.180000 0.000000
      vertex 32.801000 35.850000 8.318986
    endloop
  endfacet
  facet normal 1.000000 0.000000 0.000000
    outer loop
      vertex 32.801000 28.180000 13.200000
      vertex 32.801000 38.281014 10.749999
      vertex 32.801000 48.471000 13.200000
    endloop
  endfacet
  facet normal 1.000000 0.000000 0.000000
    outer loop
      vertex 32.801000 28.180000 13.200000
      vertex 32.801000 35.850000 8.318986
      vertex 32.801000 38.281014 10.749999
    endloop
  endfacet
  facet normal 1.000000 0.000000 0.000000
    outer loop
      vertex 32.801000 38.281014 10.749999
      vertex 32.801000 41.718986 10.750000
      vertex 32.801000 48.471000 13.200000
    endloop
  endfacet
  facet normal 1.000000 0.000000 0.000000
    outer loop
      vertex 32.801000 44.150000 4.881014
      vertex 32.801000 48.471000 0.000000
      vertex 32.801000 44.149999 8.318986
    endloop
  endfacet
  facet normal 1.000000 0.000000 0.000000
    outer loop
      vertex 32.801000 41.718986 2.450001
      vertex 32.801000 48.471000 0.000000
      vertex 32.801000 44.150000 4.881014
    endloop
  endfacet
  facet normal 1.000000 0.000000 0.000000
    outer loop
      vertex 32.801000 28.180000 0.000000
      vertex 32.801000 48.471000 0.000000
      vertex 32.801000 41.718986 2.450001
    endloop
  endfacet
  facet normal 1.000000 0.000000 0.000000
    outer loop
      vertex 32.801000 28.180000 0.000000
      vertex 32.801000 41.718986 2.450001
      vertex 32.801000 38.281014 2.450000
    endloop
  endfacet
  facet normal 1.000000 -0.000000 0.000000
    outer loop
      vertex 32.801000 35.850001 4.881014
      vertex 32.801000 35.850000 8.318986
      vertex 32.801000 28.180000 0.000000
    endloop
  endfacet
  facet normal 1.000000 0.000000 0.000000
    outer loop
      vertex 32.801000 41.718986 10.750000
      vertex 32.801000 44.149999 8.318986
      vertex 32.801000 48.471000 13.200000
    endloop
  endfacet
  facet normal 0.863212 -0.504842 0.000000
    outer loop
      vertex 32.801000 48.471000 0.000000
      vertex 37.261000 56.097000 0.000000
      vertex 37.261000 56.097000 13.200000
    endloop
  endfacet
  facet normal 0.863212 -0.504842 0.000000
    outer loop
      vertex 32.801000 48.471000 13.200000
      vertex 32.801000 48.471000 0.000000
      vertex 37.261000 56.097000 13.200000
    endloop
  endfacet
  facet normal 0.499970 -0.866042 0.000000
    outer loop
      vertex 47.838593 62.203494 4.881014
      vertex 54.595000 66.104000 0.000000
      vertex 54.595000 66.104000 13.200000
    endloop
  endfacet
  facet normal 0.499970 -0.866042 -0.000000
    outer loop
      vertex 47.838592 62.203494 8.318986
      vertex 47.838593 62.203494 4.881014
      vertex 54.595000 66.104000 13.200000
    endloop
  endfacet
  facet normal 0.499970 -0.866042 0.000000
    outer loop
      vertex 37.261000 56.097000 13.200000
      vertex 37.261000 56.097000 0.000000
      vertex 40.650440 58.053740 8.318986
    endloop
  endfacet
  facet normal 0.499970 -0.866042 0.000000
    outer loop
      vertex 37.261000 56.097000 13.200000
      vertex 42.755802 59.269175 10.749999
      vertex 54.595000 66.104000 13.200000
    endloop
  endfacet
  facet normal 0.499970 -0.866042 0.000000
    outer loop
      vertex 37.261000 56.097000 13.200000
      vertex 40.650440 58.053740 8.318986
      vertex 42.755802 59.269175 10.749999
    endloop
  endfacet
  facet normal 0.499970 -0.866042 0.000000
    outer loop
      vertex 42.755802 59.269175 10.749999
      vertex 45.733232 60.988059 10.750000
      vertex 54.595000 66.104000 13.200000
    endloop
  endfacet
  facet normal 0.499970 -0.866042 -0.000000
    outer loop
      vertex 45.733231 60.988059 2.450001
      vertex 54.595000 66.104000 0.000000
      vertex 47.838593 62.203494 4.881014
    endloop
  endfacet
  facet normal 0.499970 -0.866042 0.000000
    outer loop
      vertex 37.261000 56.097000 0.000000
      vertex 54.595000 66.104000 0.000000
      vertex 45.733231 60.988059 2.450001
    endloop
  endfacet
  facet normal 0.499970 -0.866042 -0.000000
    outer loop
      vertex 37.261000 56.097000 0.000000
      vertex 45.733231 60.988059 2.450001
      vertex 42.755801 59.269175 2.450000
    endloop
  endfacet
  facet normal 0.499970 -0.866042 -0.000000
    outer loop
      vertex 40.650440 58.053740 8.318986
      vertex 37.261000 56.097000 0.000000
      vertex 40.650441 58.053740 4.881014
    endloop
  endfacet
  facet normal 0.499970 -0.866042 0.000000
    outer loop
      vertex 45.733232 60.988059 10.750000
      vertex 47.838592 62.203494 8.318986
      vertex 54.595000 66.104000 13.200000
    endloop
  endfacet
  facet normal 0.499970 -0.866042 -0.000000
    outer loop
      vertex 42.755801 59.269175 2.450000
      vertex 40.650441 58.053740 4.881014
      vertex 37.261000 56.097000 0.000000
    endloop
  endfacet
  facet normal -0.499981 0.866037 0.000000
    outer loop
      vertex 32.966665 87.962429 4.881014
      vertex 39.723000 91.863000 13.200000
      vertex 39.723000 91.863000 0.000000
    endloop
  endfacet
  facet normal -0.499981 0.866037 0.000000
    outer loop
      vertex 19.890000 80.413000 13.200000
      vertex 25.778562 83.812588 8.318986
      vertex 19.890000 80.413000 0.000000
    endloop
  endfacet
  facet normal -0.499981 0.866037 0.000000
    outer loop
      vertex 25.778562 83.812588 8.318986
      vertex 25.778563 83.812589 4.881014
      vertex 19.890000 80.413000 0.000000
    endloop
  endfacet
  facet normal -0.499981 0.866037 0.000000
    outer loop
      vertex 30.861319 86.746969 10.750000
      vertex 39.723000 91.863000 13.200000
      vertex 32.966665 87.962428 8.318986
    endloop
  endfacet
  facet normal -0.499981 0.866037 0.000000
    outer loop
      vertex 19.890000 80.413000 0.000000
      vertex 27.883909 85.028048 2.450000
      vertex 39.723000 91.863000 0.000000
    endloop
  endfacet
  facet normal -0.499981 0.866037 -0.000000
    outer loop
      vertex 27.883909 85.028048 2.450000
      vertex 30.861318 86.746968 2.450001
      vertex 39.723000 91.863000 0.000000
    endloop
  endfacet
  facet normal -0.499981 0.866037 0.000000
    outer loop
      vertex 30.861318 86.746968 2.450001
      vertex 32.966665 87.962429 4.881014
      vertex 39.723000 91.863000 0.000000
    endloop
  endfacet
  facet normal -0.499981 0.866037 -0.000000
    outer loop
      vertex 32.966665 87.962428 8.318986
      vertex 39.723000 91.863000 13.200000
      vertex 32.966665 87.962429 4.881014
    endloop
  endfacet
  facet normal -0.499981 0.866037 -0.000000
    outer loop
      vertex 19.890000 80.413000 13.200000
      vertex 39.723000 91.863000 13.200000
      vertex 30.861319 86.746969 10.750000
    endloop
  endfacet
  facet normal -0.499981 0.866037 0.000000
    outer loop
      vertex 19.890000 80.413000 13.200000
      vertex 30.861319 86.746969 10.750000
      vertex 27.883909 85.028048 10.749999
    endloop
  endfacet
  facet normal -0.499981 0.866037 -0.000000
    outer loop
      vertex 19.890000 80.413000 13.200000
      vertex 27.883909 85.028048 10.749999
      vertex 25.778562 83.812588 8.318986
    endloop
  endfacet
  facet normal -0.499981 0.866037 -0.000000
    outer loop
      vertex 27.883909 85.028048 2.450000
      vertex 19.890000 80.413000 0.000000
      vertex 25.778563 83.812589 4.881014
    endloop
  endfacet
  facet normal -0.866023 0.500004 0.000000
    outer loop
      vertex 2.649000 50.551000 13.200000
      vertex 19.890000 80.413000 13.200000
      vertex 2.649000 50.551000 0.000000
    endloop
  endfacet
  facet normal -0.866023 0.500004 0.000000
    outer loop
      vertex 2.649000 50.551000 0.000000
      vertex 19.890000 80.413000 13.200000
      vertex 19.890000 80.413000 0.000000
    endloop
  endfacet
  facet normal 0.923879 0.382684 0.000000
    outer loop
      vertex 42.495072 78.912000 0.000000
      vertex 42.495072 78.912000 13.200000
      vertex 43.810728 75.735728 13.200000
    endloop
  endfacet
  facet normal 0.923879 0.382684 0.000000
    outer loop
      vertex 43.810728 75.735728 0.000000
      vertex 42.495072 78.912000 0.000000
      vertex 43.810728 75.735728 13.200000
    endloop
  endfacet
  facet normal 0.923879 -0.382684 0.000000
    outer loop
      vertex 42.495072 78.912000 0.000000
      vertex 43.810728 82.088272 0.000000
      vertex 43.810728 82.088272 13.200000
    endloop
  endfacet
  facet normal 0.923879 -0.382684 0.000000
    outer loop
      vertex 42.495072 78.912000 13.200000
      vertex 42.495072 78.912000 0.000000
      vertex 43.810728 82.088272 13.200000
    endloop
  endfacet
  facet normal 0.382684 -0.923879 0.000000
    outer loop
      vertex 43.810728 82.088272 0.000000
      vertex 46.987000 83.403928 0.000000
      vertex 46.987000 83.403928 13.200000
    endloop
  endfacet
  facet normal 0.382684 -0.923879 0.000000
    outer loop
      vertex 43.810728 82.088272 13.200000
      vertex 43.810728 82.088272 0.000000
      vertex 46.987000 83.403928 13.200000
    endloop
  endfacet
  facet normal -0.382684 -0.923879 0.000000
    outer loop
      vertex 46.987000 83.403928 0.000000
      vertex 50.163272 82.088272 0.000000
      vertex 50.163272 82.088272 13.200000
    endloop
  endfacet
  facet normal -0.382684 -0.923879 0.000000
    outer loop
      vertex 46.987000 83.403928 13.200000
      vertex 46.987000 83.403928 0.000000
      vertex 50.163272 82.088272 13.200000
    endloop
  endfacet
  facet normal -0.923879 -0.382684 -0.000000
    outer loop
      vertex 51.478928 78.912000 0.000000
      vertex 51.478928 78.912000 13.200000
      vertex 50.163272 82.088272 0.000000
    endloop
  endfacet
  facet normal -0.923879 -0.382684 -0.000000
    outer loop
      vertex 50.163272 82.088272 0.000000
      vertex 51.478928 78.912000 13.200000
      vertex 50.163272 82.088272 13.200000
    endloop
  endfacet
  facet normal -0.923879 0.382684 0.000000
    outer loop
      vertex 50.163272 75.735728 13.200000
      vertex 51.478928 78.912000 13.200000
      vertex 50.163272 75.735728 0.000000
    endloop
  endfacet
  facet normal -0.923879 0.382684 0.000000
    outer loop
      vertex 50.163272 75.735728 0.000000
      vertex 51.478928 78.912000 13.200000
      vertex 51.478928 78.912000 0.000000
    endloop
  endfacet
  facet normal -0.382684 0.923879 0.000000
    outer loop
      vertex 46.987000 74.420072 13.200000
      vertex 50.163272 75.735728 13.200000
      vertex 46.987000 74.420072 0.000000
    endloop
  endfacet
  facet normal -0.382684 0.923879 0.000000
    outer loop
      vertex 46.987000 74.420072 0.000000
      vertex 50.163272 75.735728 13.200000
      vertex 50.163272 75.735728 0.000000
    endloop
  endfacet
  facet normal 0.382684 0.923879 -0.000000
    outer loop
      vertex 43.810728 75.735728 13.200000
      vertex 46.987000 74.420072 13.200000
      vertex 43.810728 75.735728 0.000000
    endloop
  endfacet
  facet normal 0.382684 0.923879 0.000000
    outer loop
      vertex 43.810728 75.735728 0.000000
      vertex 46.987000 74.420072 13.200000
      vertex 46.987000 74.420072 0.000000
    endloop
  endfacet
  facet normal 1.000000 0.000000 0.000000
    outer loop
      vertex 9.789400 48.300001 3.162027
      vertex 9.789400 54.930600 0.000000
      vertex 9.789400 54.930600 13.200000
    endloop
  endfacet
  facet normal 1.000000 0.000000 0.000000
    outer loop
      vertex 9.789400 45.137973 13.200000
      vertex 9.789400 48.299999 10.037972
      vertex 9.789400 54.930600 13.200000
    endloop
  endfacet
  facet normal 1.000000 0.000000 0.000000
    outer loop
      vertex 9.789400 45.137972 0.000000
      vertex 9.789400 54.930600 0.000000
      vertex 9.789400 48.300001 3.162027
    endloop
  endfacet
  facet normal 1.000000 0.000000 0.000000
    outer loop
      vertex 9.789400 48.299999 10.037972
      vertex 9.789400 48.300001 3.162027
      vertex 9.789400 54.930600 13.200000
    endloop
  endfacet
  facet normal 0.000000 0.707107 -0.707107
    outer loop
      vertex 9.789400 48.300001 3.162027
      vertex 27.880600 48.300001 3.162027
      vertex 9.789400 45.137972 0.000000
    endloop
  endfacet
  facet normal 0.000000 0.707107 -0.707107
    outer loop
      vertex 9.789400 45.137972 0.000000
      vertex 27.880600 48.300001 3.162027
      vertex 27.880600 45.137972 0.000000
    endloop
  endfacet
  facet normal 0.866023 -0.500004 0.000000
    outer loop
      vertex 9.789400 54.930600 0.000000
      vertex 20.134000 72.847800 0.000000
      vertex 20.134000 72.847800 13.200000
    endloop
  endfacet
  facet normal 0.866023 -0.500004 0.000000
    outer loop
      vertex 9.789400 54.930600 13.200000
      vertex 9.789400 54.930600 0.000000
      vertex 20.134000 72.847800 13.200000
    endloop
  endfacet
  facet normal 0.499981 -0.866037 0.000000
    outer loop
      vertex 25.800250 76.119043 10.037973
      vertex 20.134000 72.847800 13.200000
      vertex 20.134000 72.847800 0.000000
    endloop
  endfacet
  facet normal 0.499981 -0.866037 -0.000000
    outer loop
      vertex 20.134000 72.847800 0.000000
      vertex 28.538682 77.699996 0.000000
      vertex 25.800252 76.119044 3.162028
    endloop
  endfacet
  facet normal 0.499981 -0.866037 0.000000
    outer loop
      vertex 25.800250 76.119043 10.037973
      vertex 20.134000 72.847800 0.000000
      vertex 25.800252 76.119044 3.162028
    endloop
  endfacet
  facet normal 0.499981 -0.866037 -0.000000
    outer loop
      vertex 28.538682 77.699997 13.200000
      vertex 20.134000 72.847800 13.200000
      vertex 25.800250 76.119043 10.037973
    endloop
  endfacet
  facet normal -0.612373 -0.353553 -0.707107
    outer loop
      vertex 28.538682 77.699996 0.000000
      vertex 37.461842 62.244629 0.000000
      vertex 25.800252 76.119044 3.162028
    endloop
  endfacet
  facet normal -0.612373 -0.353553 -0.707107
    outer loop
      vertex 25.800252 76.119044 3.162028
      vertex 37.461842 62.244629 0.000000
      vertex 34.723393 60.663709 3.162028
    endloop
  endfacet
  facet normal -0.499970 0.866042 0.000000
    outer loop
      vertex 30.556600 58.258200 13.200000
      vertex 34.723391 60.663708 10.037973
      vertex 30.556600 58.258200 0.000000
    endloop
  endfacet
  facet normal -0.499970 0.866042 0.000000
    outer loop
      vertex 30.556600 58.258200 13.200000
      vertex 37.461843 62.244629 13.200000
      vertex 34.723391 60.663708 10.037973
    endloop
  endfacet
  facet normal -0.499970 0.866042 -0.000000
    outer loop
      vertex 30.556600 58.258200 0.000000
      vertex 34.723393 60.663709 3.162028
      vertex 37.461842 62.244629 0.000000
    endloop
  endfacet
  facet normal -0.499970 0.866042 -0.000000
    outer loop
      vertex 34.723393 60.663709 3.162028
      vertex 30.556600 58.258200 0.000000
      vertex 34.723391 60.663708 10.037973
    endloop
  endfacet
  facet normal -0.863212 0.504842 0.000000
    outer loop
      vertex 27.880600 53.682600 13.200000
      vertex 30.556600 58.258200 13.200000
      vertex 27.880600 53.682600 0.000000
    endloop
  endfacet
  facet normal -0.863212 0.504842 0.000000
    outer loop
      vertex 27.880600 53.682600 0.000000
      vertex 30.556600 58.258200 13.200000
      vertex 30.556600 58.258200 0.000000
    endloop
  endfacet
  facet normal -1.000000 0.000000 0.000000
    outer loop
      vertex 27.880600 53.682600 13.200000
      vertex 27.880600 48.299999 10.037972
      vertex 27.880600 45.137973 13.200000
    endloop
  endfacet
  facet normal -1.000000 0.000000 -0.000000
    outer loop
      vertex 27.880600 48.300001 3.162027
      vertex 27.880600 48.299999 10.037972
      vertex 27.880600 53.682600 13.200000
    endloop
  endfacet
  facet normal -1.000000 -0.000000 0.000000
    outer loop
      vertex 27.880600 48.300001 3.162027
      vertex 27.880600 53.682600 13.200000
      vertex 27.880600 53.682600 0.000000
    endloop
  endfacet
  facet normal -1.000000 0.000000 0.000000
    outer loop
      vertex 27.880600 48.300001 3.162027
      vertex 27.880600 53.682600 0.000000
      vertex 27.880600 45.137972 0.000000
    endloop
  endfacet
  facet normal 0.923879 0.382684 0.000000
    outer loop
      vertex 13.234072 28.249000 0.000000
      vertex 13.234072 28.249000 13.200000
      vertex 14.549728 25.072728 13.200000
    endloop
  endfacet
  facet normal 0.923879 0.382684 0.000000
    outer loop
      vertex 14.549728 25.072728 0.000000
      vertex 13.234072 28.249000 0.000000
      vertex 14.549728 25.072728 13.200000
    endloop
  endfacet
  facet normal 0.923879 -0.382684 0.000000
    outer loop
      vertex 13.234072 28.249000 0.000000
      vertex 14.549728 31.425272 0.000000
      vertex 14.549728 31.425272 13.200000
    endloop
  endfacet
  facet normal 0.923879 -0.382684 0.000000
    outer loop
      vertex 13.234072 28.249000 13.200000
      vertex 13.234072 28.249000 0.000000
      vertex 14.549728 31.425272 13.200000
    endloop
  endfacet
  facet normal 0.382684 -0.923879 0.000000
    outer loop
      vertex 14.549728 31.425272 0.000000
      vertex 17.726000 32.740928 0.000000
      vertex 17.726000 32.740928 13.200000
    endloop
  endfacet
  facet normal 0.382684 -0.923879 0.000000
    outer loop
      vertex 14.549728 31.425272 13.200000
      vertex 14.549728 31.425272 0.000000
      vertex 17.726000 32.740928 13.200000
    endloop
  endfacet
  facet normal -0.382684 -0.923879 0.000000
    outer loop
      vertex 17.726000 32.740928 0.000000
      vertex 20.902272 31.425272 0.000000
      vertex 20.902272 31.425272 13.200000
    endloop
  endfacet
  facet normal -0.382684 -0.923879 0.000000
    outer loop
      vertex 17.726000 32.740928 13.200000
      vertex 17.726000 32.740928 0.000000
      vertex 20.902272 31.425272 13.200000
    endloop
  endfacet
  facet normal -0.923879 -0.382684 -0.000000
    outer loop
      vertex 22.217928 28.249000 0.000000
      vertex 22.217928 28.249000 13.200000
      vertex 20.902272 31.425272 0.000000
    endloop
  endfacet
  facet normal -0.923879 -0.382684 -0.000000
    outer loop
      vertex 20.902272 31.425272 0.000000
      vertex 22.217928 28.249000 13.200000
      vertex 20.902272 31.425272 13.200000
    endloop
  endfacet
  facet normal -0.923879 0.382684 0.000000
    outer loop
      vertex 20.902272 25.072728 13.200000
      vertex 22.217928 28.249000 13.200000
      vertex 20.902272 25.072728 0.000000
    endloop
  endfacet
  facet normal -0.923879 0.382684 0.000000
    outer loop
      vertex 20.902272 25.072728 0.000000
      vertex 22.217928 28.249000 13.200000
      vertex 22.217928 28.249000 0.000000
    endloop
  endfacet
  facet normal -0.382684 0.923879 0.000000
    outer loop
      vertex 17.726000 23.757072 13.200000
      vertex 20.902272 25.072728 13.200000
      vertex 17.726000 23.757072 0.000000
    endloop
  endfacet
  facet normal -0.382684 0.923879 0.000000
    outer loop
      vertex 17.726000 23.757072 0.000000
      vertex 20.902272 25.072728 13.200000
      vertex 20.902272 25.072728 0.000000
    endloop
  endfacet
  facet normal 0.382684 0.923879 -0.000000
    outer loop
      vertex 14.549728 25.072728 13.200000
      vertex 17.726000 23.757072 13.200000
      vertex 14.549728 25.072728 0.000000
    endloop
  endfacet
  facet normal 0.382684 0.923879 0.000000
    outer loop
      vertex 14.549728 25.072728 0.000000
      vertex 17.726000 23.757072 13.200000
      vertex 17.726000 23.757072 0.000000
    endloop
  endfacet
  facet normal 0.000000 1.000000 -0.000000
    outer loop
      vertex 15.500000 6.000000 13.200000
      vertex 20.500000 6.000000 13.200000
      vertex 15.500000 6.000000 0.000000
    endloop
  endfacet
  facet normal 0.000000 1.000000 0.000000
    outer loop
      vertex 15.500000 6.000000 0.000000
      vertex 20.500000 6.000000 13.200000
      vertex 20.500000 6.000000 0.000000
    endloop
  endfacet
  facet normal 1.000000 0.000000 0.000000
    outer loop
      vertex 15.500000 6.000000 0.000000
      vertex 15.500000 19.000000 0.000000
      vertex 15.500000 19.000000 13.200000
    endloop
  endfacet
  facet normal 1.000000 0.000000 -0.000000
    outer loop
      vertex 15.500000 6.000000 13.200000
      vertex 15.500000 6.000000 0.000000
      vertex 15.500000 19.000000 13.200000
    endloop
  endfacet
  facet normal -0.000000 -1.000000 0.000000
    outer loop
      vertex 15.500000 19.000000 0.000000
      vertex 20.500000 19.000000 0.000000
      vertex 20.500000 19.000000 13.200000
    endloop
  endfacet
  facet normal 0.000000 -1.000000 0.000000
    outer loop
      vertex 15.500000 19.000000 13.200000
      vertex 15.500000 19.000000 0.000000
      vertex 20.500000 19.000000 13.200000
    endloop
  endfacet
  facet normal -1.000000 0.000000 0.000000
    outer loop
      vertex 20.500000 6.000000 13.200000
      vertex 20.500000 19.000000 13.200000
      vertex 20.500000 6.000000 0.000000
    endloop
  endfacet
  facet normal -1.000000 -0.000000 0.000000
    outer loop
      vertex 20.500000 6.000000 0.000000
      vertex 20.500000 19.000000 13.200000
      vertex 20.500000 19.000000 0.000000
    endloop
  endfacet
  facet normal -0.000000 0.707107 0.707107
    outer loop
      vertex 27.880600 45.137973 13.200000
      vertex 27.880600 48.299999 10.037972
      vertex 9.789400 45.137973 13.200000
    endloop
  endfacet
  facet normal -0.000000 0.707107 0.707107
    outer loop
      vertex 9.789400 45.137973 13.200000
      vertex 27.880600 48.299999 10.037972
      vertex 9.789400 48.299999 10.037972
    endloop
  endfacet
  facet normal -0.612372 -0.353553 0.707107
    outer loop
      vertex 25.800250 76.119043 10.037973
      vertex 34.723391 60.663708 10.037973
      vertex 37.461843 62.244629 13.200000
    endloop
  endfacet
  facet normal -0.612372 -0.353553 0.707107
    outer loop
      vertex 28.538682 77.699997 13.200000
      vertex 25.800250 76.119043 10.037973
      vertex 37.461843 62.244629 13.200000
    endloop
  endfacet
  facet normal -0.000000 1.000000 0.000000
    outer loop
      vertex 32.801000 35.850000 8.318986
      vertex 32.801000 35.850001 4.881014
      vertex 2.649000 35.850000 8.318986
    endloop
  endfacet
  facet normal -0.000000 1.000000 0.000000
    outer loop
      vertex 2.649000 35.850000 8.318986
      vertex 32.801000 35.850001 4.881014
      vertex 2.649000 35.850001 4.881014
    endloop
  endfacet
  facet normal 0.000000 0.707107 -0.707107
    outer loop
      vertex 2.649000 38.281014 10.749999
      vertex 32.801000 38.281014 10.749999
      vertex 2.649000 35.850000 8.318986
    endloop
  endfacet
  facet normal 0.000000 0.707107 -0.707107
    outer loop
      vertex 2.649000 35.850000 8.318986
      vertex 32.801000 38.281014 10.749999
      vertex 32.801000 35.850000 8.318986
    endloop
  endfacet
  facet normal 0.000000 0.000000 -1.000000
    outer loop
      vertex 2.649000 41.718986 10.750000
      vertex 32.801000 41.718986 10.750000
      vertex 2.649000 38.281014 10.749999
    endloop
  endfacet
  facet normal 0.000000 0.000000 -1.000000
    outer loop
      vertex 2.649000 38.281014 10.749999
      vertex 32.801000 41.718986 10.750000
      vertex 32.801000 38.281014 10.749999
    endloop
  endfacet
  facet normal 0.000000 -0.707107 -0.707107
    outer loop
      vertex 2.649000 41.718986 10.750000
      vertex 2.649000 44.149999 8.318986
      vertex 32.801000 44.149999 8.318986
    endloop
  endfacet
  facet normal 0.000000 -0.707107 -0.707107
    outer loop
      vertex 32.801000 41.718986 10.750000
      vertex 2.649000 41.718986 10.750000
      vertex 32.801000 44.149999 8.318986
    endloop
  endfacet
  facet normal 0.000000 -1.000000 -0.000000
    outer loop
      vertex 2.649000 44.149999 8.318986
      vertex 2.649000 44.150000 4.881014
      vertex 32.801000 44.150000 4.881014
    endloop
  endfacet
  facet normal 0.000000 -1.000000 -0.000000
    outer loop
      vertex 32.801000 44.149999 8.318986
      vertex 2.649000 44.149999 8.318986
      vertex 32.801000 44.150000 4.881014
    endloop
  endfacet
  facet normal -0.000000 -0.707107 0.707107
    outer loop
      vertex 2.649000 41.718986 2.450001
      vertex 32.801000 41.718986 2.450001
      vertex 32.801000 44.150000 4.881014
    endloop
  endfacet
  facet normal -0.000000 -0.707107 0.707107
    outer loop
      vertex 2.649000 44.150000 4.881014
      vertex 2.649000 41.718986 2.450001
      vertex 32.801000 44.150000 4.881014
    endloop
  endfacet
  facet normal -0.000000 -0.000000 1.000000
    outer loop
      vertex 2.649000 38.281014 2.450000
      vertex 32.801000 38.281014 2.450000
      vertex 32.801000 41.718986 2.450001
    endloop
  endfacet
  facet normal -0.000000 -0.000000 1.000000
    outer loop
      vertex 2.649000 41.718986 2.450001
      vertex 2.649000 38.281014 2.450000
      vertex 32.801000 41.718986 2.450001
    endloop
  endfacet
  facet normal -0.000000 0.707107 0.707107
    outer loop
      vertex 32.801000 35.850001 4.881014
      vertex 32.801000 38.281014 2.450000
      vertex 2.649000 35.850001 4.881014
    endloop
  endfacet
  facet normal -0.000000 0.707107 0.707107
    outer loop
      vertex 2.649000 35.850001 4.881014
      vertex 32.801000 38.281014 2.450000
      vertex 2.649000 38.281014 2.450000
    endloop
  endfacet
  facet normal 0.612372 0.353553 -0.707107
    outer loop
      vertex 27.883909 85.028048 10.749999
      vertex 42.755802 59.269175 10.749999
      vertex 25.778562 83.812588 8.318986
    endloop
  endfacet
  facet normal 0.612372 0.353553 -0.707107
    outer loop
      vertex 25.778562 83.812588 8.318986
      vertex 42.755802 59.269175 10.749999
      vertex 40.650440 58.053740 8.318986
    endloop
  endfacet
  facet normal 0.866025 0.500000 0.000000
    outer loop
      vertex 25.778562 83.812588 8.318986
      vertex 40.650440 58.053740 8.318986
      vertex 40.650441 58.053740 4.881014
    endloop
  endfacet
  facet normal 0.866025 0.500000 0.000000
    outer loop
      vertex 25.778563 83.812589 4.881014
      vertex 25.778562 83.812588 8.318986
      vertex 40.650441 58.053740 4.881014
    endloop
  endfacet
  facet normal 0.612373 0.353553 0.707107
    outer loop
      vertex 25.778563 83.812589 4.881014
      vertex 40.650441 58.053740 4.881014
      vertex 42.755801 59.269175 2.450000
    endloop
  endfacet
  facet normal 0.612373 0.353553 0.707107
    outer loop
      vertex 27.883909 85.028048 2.450000
      vertex 25.778563 83.812589 4.881014
      vertex 42.755801 59.269175 2.450000
    endloop
  endfacet
  facet normal -0.000000 -0.000000 1.000000
    outer loop
      vertex 27.883909 85.028048 2.450000
      vertex 42.755801 59.269175 2.450000
      vertex 45.733231 60.988059 2.450001
    endloop
  endfacet
  facet normal -0.000000 -0.000000 1.000000
    outer loop
      vertex 30.861318 86.746968 2.450001
      vertex 27.883909 85.028048 2.450000
      vertex 45.733231 60.988059 2.450001
    endloop
  endfacet
  facet normal -0.612372 -0.353553 0.707107
    outer loop
      vertex 30.861318 86.746968 2.450001
      vertex 45.733231 60.988059 2.450001
      vertex 47.838593 62.203494 4.881014
    endloop
  endfacet
  facet normal -0.612372 -0.353553 0.707107
    outer loop
      vertex 32.966665 87.962429 4.881014
      vertex 30.861318 86.746968 2.450001
      vertex 47.838593 62.203494 4.881014
    endloop
  endfacet
  facet normal -0.866025 -0.500000 -0.000000
    outer loop
      vertex 32.966665 87.962429 4.881014
      vertex 47.838593 62.203494 4.881014
      vertex 32.966665 87.962428 8.318986
    endloop
  endfacet
  facet normal -0.866025 -0.500000 -0.000000
    outer loop
      vertex 32.966665 87.962428 8.318986
      vertex 47.838593 62.203494 4.881014
      vertex 47.838592 62.203494 8.318986
    endloop
  endfacet
  facet normal -0.612373 -0.353553 -0.707107
    outer loop
      vertex 32.966665 87.962428 8.318986
      vertex 47.838592 62.203494 8.318986
      vertex 30.861319 86.746969 10.750000
    endloop
  endfacet
  facet normal -0.612373 -0.353553 -0.707107
    outer loop
      vertex 30.861319 86.746969 10.750000
      vertex 47.838592 62.203494 8.318986
      vertex 45.733232 60.988059 10.750000
    endloop
  endfacet
  facet normal 0.000000 0.000000 -1.000000
    outer loop
      vertex 30.861319 86.746969 10.750000
      vertex 45.733232 60.988059 10.750000
      vertex 27.883909 85.028048 10.749999
    endloop
  endfacet
  facet normal 0.000000 0.000000 -1.000000
    outer loop
      vertex 27.883909 85.028048 10.749999
      vertex 45.733232 60.988059 10.750000
      vertex 42.755802 59.269175 10.749999
    endloop
  endfacet
  facet normal -0.000000 1.000000 0.000000
    outer loop
      vertex 27.880600 48.299999 10.037972
      vertex 27.880600 48.300001 3.162027
      vertex 9.789400 48.299999 10.037972
    endloop
  endfacet
  facet normal -0.000000 1.000000 0.000000
    outer loop
      vertex 9.789400 48.299999 10.037972
      vertex 27.880600 48.300001 3.162027
      vertex 9.789400 48.300001 3.162027
    endloop
  endfacet
  facet normal -0.866025 -0.500000 -0.000000
    outer loop
      vertex 25.800252 76.119044 3.162028
      vertex 34.723393 60.663709 3.162028
      vertex 25.800250 76.119043 10.037973
    endloop
  endfacet
  facet normal -0.866025 -0.500000 -0.000000
    outer loop
      vertex 25.800250 76.119043 10.037973
      vertex 34.723393 60.663709 3.162028
      vertex 34.723391 60.663708 10.037973
    endloop
  endfacet
endsolid OpenSCAD_Model
